<?xml version="1.0" encoding="UTF-8" standalone="no"?>
<!-- Created with Inkscape (http://www.inkscape.org/) -->

<svg
   version="1.1"
   id="svg1"
   width="1410.968"
   height="1403.7103"
   viewBox="0 0 1410.968 1403.7103"
   sodipodi:docname="favicon.svg"
   inkscape:version="1.4.3 (0d15f75042, 2025-12-25)"
   inkscape:export-filename="favicon2.png"
   inkscape:export-xdpi="10"
   inkscape:export-ydpi="10"
   xmlns:inkscape="http://www.inkscape.org/namespaces/inkscape"
   xmlns:sodipodi="http://sodipodi.sourceforge.net/DTD/sodipodi-0.dtd"
   xmlns="http://www.w3.org/2000/svg"
   xmlns:svg="http://www.w3.org/2000/svg">
  <defs
     id="defs1">
    <clipPath
       clipPathUnits="userSpaceOnUse"
       id="clipPath273">
      <rect
         style="opacity:0.239783;fill:#808080;stroke-width:0.987788"
         id="rect274"
         width="1629.7675"
         height="1404.5045"
         x="238.25011"
         y="326.54947"
         ry="0" />
    </clipPath>
    <clipPath
       clipPathUnits="userSpaceOnUse"
       id="clipPath275">
      <rect
         style="opacity:0.239783;fill:#808080;stroke-width:1.01779"
         id="rect276"
         width="1410.968"
         height="1403.7103"
         x="318.84116"
         y="327.19693" />
    </clipPath>
  </defs>
  <sodipodi:namedview
     id="namedview1"
     pagecolor="#ffffff"
     bordercolor="#000000"
     borderopacity="0.25"
     inkscape:showpageshadow="2"
     inkscape:pageopacity="0.0"
     inkscape:pagecheckerboard="0"
     inkscape:deskcolor="#d1d1d1"
     inkscape:zoom="0.38427734"
     inkscape:cx="374.72935"
     inkscape:cy="550.38374"
     inkscape:window-width="1920"
     inkscape:window-height="995"
     inkscape:window-x="0"
     inkscape:window-y="0"
     inkscape:window-maximized="1"
     inkscape:current-layer="g1" />
  <g
     inkscape:groupmode="layer"
     inkscape:label="Image"
     id="g1"
     transform="translate(-318.84116,-327.19693)">
    <path
       style="fill:#ffffff"
       d="m 1334.5,2009 c -0.3399,-0.55 -0.1415,-1 0.441,-1 0.5824,0 1.059,0.45 1.059,1 0,0.55 -0.1984,1 -0.441,1 -0.2425,0 -0.7191,-0.45 -1.059,-1 z m 560,0 c -0.3399,-0.55 -0.1415,-1 0.441,-1 0.5824,0 1.059,0.45 1.059,1 0,0.55 -0.1984,1 -0.441,1 -0.2425,0 -0.7191,-0.45 -1.059,-1 z m -655.6875,-0.6831 c 0.7219,-0.2889 1.5844,-0.2534 1.9167,0.079 0.3323,0.3323 -0.2584,0.5687 -1.3125,0.5253 -1.165,-0.048 -1.4019,-0.285 -0.6042,-0.6042 z m 80,0 c 0.7219,-0.2889 1.5844,-0.2534 1.9167,0.079 0.3323,0.3323 -0.2584,0.5687 -1.3125,0.5253 -1.165,-0.048 -1.4019,-0.285 -0.6042,-0.6042 z m 521,0 c 0.7219,-0.2889 1.5844,-0.2534 1.9167,0.079 0.3323,0.3323 -0.2584,0.5687 -1.3125,0.5253 -1.165,-0.048 -1.4019,-0.285 -0.6042,-0.6042 z m 92.6144,-29.5669 c -6.1461,-18.61 -20.8152,-33.2942 -39.1769,-39.2172 -3.8166,-1.2311 -5.25,-2.1957 -5.25,-3.5328 0,-1.3363 1.4357,-2.3041 5.25,-3.5392 18.7163,-6.0601 33.1925,-20.534 39.2172,-39.2108 2.4509,-7.5978 4.7209,-7.1996 7.558,1.3259 2.7892,8.3815 10.7439,20.3033 16.7858,25.1571 2.5789,2.0719 5.139,4.3056 5.689,4.9638 1.1322,1.3551 12.0874,6.454 17.75,8.2614 5.6589,1.8062 5.0575,4.4528 -1.5,6.6006 -19.4018,6.3547 -32.9454,19.8928 -39.2072,39.1912 -1.2372,3.8129 -2.207,5.25 -3.5428,5.25 -1.332,0 -2.3175,-1.4481 -3.5731,-5.25 z m -50.269,-2.75 c 0,-1.375 0.227,-1.9375 0.5044,-1.25 0.2774,0.6875 0.2774,1.8125 0,2.5 -0.2774,0.6875 -0.5044,0.125 -0.5044,-1.25 z m 126.037,-4.5 c 0.02,-1.65 0.2445,-2.2039 0.4981,-1.231 0.2535,0.973 0.2369,2.323 -0.037,3 -0.2739,0.6771 -0.4813,-0.119 -0.461,-1.769 z M 162.15789,1922 c 0,-1.375 0.22698,-1.9375 0.50439,-1.25 0.27741,0.6875 0.27741,1.8125 0,2.5 -0.27741,0.6875 -0.50439,0.125 -0.50439,-1.25 z m 822.65461,-39.6831 c 0.72187,-0.2889 1.58438,-0.2534 1.91667,0.079 0.33229,0.3323 -0.25834,0.5687 -1.3125,0.5253 -1.16495,-0.048 -1.4019,-0.285 -0.60417,-0.6042 z m 247,0 c 0.7219,-0.2889 1.5844,-0.2534 1.9167,0.079 0.3323,0.3323 -0.2584,0.5687 -1.3125,0.5253 -1.165,-0.048 -1.4019,-0.285 -0.6042,-0.6042 z m 416,0 c 0.7219,-0.2889 1.5844,-0.2534 1.9167,0.079 0.3323,0.3323 -0.2584,0.5687 -1.3125,0.5253 -1.165,-0.048 -1.4019,-0.285 -0.6042,-0.6042 z m -1432,-41 c 0.72187,-0.2889 1.58437,-0.2534 1.91667,0.079 0.33229,0.3323 -0.25834,0.5687 -1.3125,0.5253 -1.16495,-0.048 -1.4019,-0.285 -0.60417,-0.6042 z m 8,0 c 0.72187,-0.2889 1.58437,-0.2534 1.91667,0.079 0.33229,0.3323 -0.25834,0.5687 -1.3125,0.5253 -1.16495,-0.048 -1.4019,-0.285 -0.60417,-0.6042 z m 637.76034,-0.2231 c 0.61263,-0.6126 7.68595,-0.1436 8.40152,0.5571 0.26089,0.2555 -1.64297,0.3549 -4.2308,0.2209 -2.58784,-0.1339 -4.46466,-0.484 -4.17072,-0.778 z m 9.75045,0.2496 c 0.73084,-0.7309 23.79843,-0.555 24.5405,0.1871 0.25825,0.2582 -5.30546,0.4695 -12.36379,0.4695 -7.05833,0 -12.53785,-0.2955 -12.17671,-0.6566 z m 80.48921,-0.026 c 0.72187,-0.2889 1.58438,-0.2534 1.91667,0.079 0.33229,0.3323 -0.25834,0.5687 -1.3125,0.5253 -1.16495,-0.048 -1.4019,-0.285 -0.60417,-0.6042 z m 163.3401,0.1971 c 0.6819,-0.6819 9.7436,-0.9512 10.3861,-0.3086 0.2915,0.2915 -2.0351,0.5891 -5.1701,0.6614 -3.1351,0.072 -5.4822,-0.087 -5.216,-0.3528 z m 14.6599,-0.1971 c 0.7219,-0.2889 1.5844,-0.2534 1.9167,0.079 0.3323,0.3323 -0.2584,0.5687 -1.3125,0.5253 -1.165,-0.048 -1.4019,-0.285 -0.6042,-0.6042 z m 404,0 c 0.7219,-0.2889 1.5844,-0.2534 1.9167,0.079 0.3323,0.3323 -0.2584,0.5687 -1.3125,0.5253 -1.165,-0.048 -1.4019,-0.285 -0.6042,-0.6042 z m 71.4107,0.1266 c 0.7539,-0.754 21.7623,-0.7914 22.5135,-0.04 0.3282,0.3281 -4.7284,0.5966 -11.2367,0.5966 -6.5083,0 -11.5829,-0.2504 -11.2768,-0.5565 z m 254.5893,-0.1266 c 0.7219,-0.2889 1.5844,-0.2534 1.9167,0.079 0.3323,0.3323 -0.2584,0.5687 -1.3125,0.5253 -1.165,-0.048 -1.4019,-0.285 -0.6042,-0.6042 z m 6,0 c 0.7219,-0.2889 1.5844,-0.2534 1.9167,0.079 0.3323,0.3323 -0.2584,0.5687 -1.3125,0.5253 -1.165,-0.048 -1.4019,-0.285 -0.6042,-0.6042 z M 139.61309,1759.817 c 0.28881,-0.4673 0.94401,-0.5907 1.45601,-0.2743 1.30838,0.8086 1.16106,1.124 -0.52511,1.124 -0.80081,0 -1.21971,-0.3824 -0.9309,-0.8497 z m 74.19941,0.4999 c 0.72187,-0.2889 1.58437,-0.2534 1.91667,0.079 0.33229,0.3323 -0.25834,0.5687 -1.3125,0.5253 -1.16495,-0.048 -1.4019,-0.285 -0.60417,-0.6042 z m 581.69458,-0.3054 c -0.35034,-0.5669 0.0511,-0.7346 0.94098,-0.3931 1.73242,0.6648 2.04939,1.3816 0.61096,1.3816 -0.51754,0 -1.21592,-0.4448 -1.55194,-0.9885 z m 252.00302,-0.028 c 0.3454,-0.559 1.047,-0.7574 1.559,-0.441 1.387,0.8572 1.1284,1.4573 -0.6281,1.4573 -0.8575,0 -1.2764,-0.4573 -0.9309,-1.0163 z m 404.3024,0.3332 c 0.7219,-0.2889 1.5844,-0.2534 1.9167,0.079 0.3323,0.3323 -0.2584,0.5687 -1.3125,0.5253 -1.165,-0.048 -1.4019,-0.285 -0.6042,-0.6042 z M 1772,1760 c -0.9013,-0.5825 -1.0246,-0.9755 -0.309,-0.9847 0.655,-0.01 1.4691,0.4347 1.809,0.9847 0.7673,1.2415 0.4211,1.2415 -1.5,0 z m 3.6156,0.1864 c -0.233,-0.3775 0.6581,-0.7513 1.9804,-0.8306 1.3222,-0.079 2.404,0.1624 2.404,0.5372 0,0.9096 -3.8451,1.1669 -4.3844,0.2934 z M 987.23388,1730.0162 C 940.53473,1727.4877 871.41971,1715.643 829.5,1702.9843 802.68776,1694.8877 774.58121,1684.7659 752.30758,1675.1855 642.93672,1628.1427 551.03422,1559.5427 477.4233,1470 c -20.85988,-25.3746 -33.08443,-42.4359 -56.96229,-79.5 -5.32741,-8.2694 -25.40053,-45.1637 -31.55612,-58 -6.72548,-14.0247 -19.37241,-43.4896 -25.10942,-58.5 -17.37936,-45.4717 -32.3821,-104.1931 -38.70682,-151.5 -1.10298,-8.25 -2.2546,-16.575 -2.55915,-18.5 -3.70161,-23.3975 -4.46637,-105.67868 -1.26107,-135.68088 5.58892,-52.31351 12.19737,-87.11088 24.84414,-130.81912 11.63632,-40.21607 24.04281,-72.30302 41.5651,-107.5 28.03132,-56.30645 49.82682,-90.68791 86.84868,-137 C 559.0541,487.26095 682.61087,402.08047 811.5,360.68916 c 10.21049,-3.27899 44.53125,-12.86184 56,-15.636 24.59563,-5.94942 75.38521,-13.87916 102.56037,-16.01267 35.42023,-2.78083 81.08273,-2.22687 120.93963,1.46718 20.2938,1.8809 27.0206,2.8073 48,6.61046 43.2922,7.84804 69.7534,14.51918 106.4732,26.84292 20.8473,6.99669 24.3971,7.97745 21.5268,5.94751 -1.3333,-0.94295 -1.3333,-1.01533 0,-0.65136 0.825,0.22521 1.5,0.98008 1.5,1.6775 0,0.69742 5.4,3.40252 12,6.01132 22.8512,9.03247 41.087,17.24073 60.402,27.18794 15.1098,7.78149 19.6106,9.70157 20.3444,8.67904 0.6933,-0.96607 0.7939,-0.85156 0.3807,0.43339 -0.4151,1.29086 0.4629,2.26903 3.3658,3.75 4.5041,2.29779 5.4153,2.47319 4.4116,0.8491 -0.4456,-0.72104 -0.2739,-0.88282 0.4573,-0.4309 0.644,0.39798 0.9466,1.08647 0.6725,1.52997 -0.2741,0.4435 3.206,2.95278 7.7337,5.57617 11.4884,6.65662 46.7083,29.724 55.732,36.50185 93.6169,70.3174 156.0543,140.43711 209.3449,235.10246 14.5595,25.86364 31.3758,62.34723 41.8379,90.76916 15.4151,41.87767 18.8536,53.80827 30.2924,105.1058 11.1591,50.04346 16.7142,123.8843 13.0901,174 -4.3248,59.8044 -9.0337,89.4041 -22.0335,138.5 -12.9865,49.0458 -27.9419,88.9227 -49.6927,132.5 -27.8798,55.8566 -55.3374,97.3495 -96.0823,145.1958 -28.8637,33.8943 -73.1034,75.6776 -108.7568,102.7182 -37.5163,28.4535 -78.1939,53.4786 -120,73.8246 -24.982,12.1581 -32.4133,15.4648 -51.5,22.9155 -61.5861,24.041 -118.5572,38.4719 -175,44.3279 -40.2271,4.1737 -86.5237,5.7529 -118.26612,4.0342 z M 1049,1654.5719 c 26.3966,-0.644 46.2363,-2.4837 70.7963,-6.5652 54.5234,-9.0608 93.2779,-19.9745 145.7037,-41.0318 9.9813,-4.0091 49.0998,-22.2131 56.5,-26.2926 25.5941,-14.1092 57.2618,-34.4988 77,-49.5773 31.1413,-23.7897 42.7126,-33.8549 69.7753,-60.6936 15.1739,-15.0483 19.1435,-19.5196 18.6557,-21.0136 -0.4348,-1.3316 -0.3418,-1.5113 0.3116,-0.6026 0.6924,0.9629 2.7012,-0.7047 7.8296,-6.5 3.794,-4.2874 8.388,-9.4066 10.2087,-11.376 3.7335,-4.0383 7.0161,-8.2726 25.1331,-32.4192 14.2485,-18.9906 19.1399,-26.1324 30.8204,-45 6.8015,-10.9866 24.2656,-41.8578 24.2656,-42.8942 0,-0.1794 3.6553,-7.9266 8.1229,-17.216 18.1006,-37.6362 33.5183,-81.6791 43.369,-123.8898 4.7913,-20.531 12.1158,-65.4949 13.9277,-85.5 6.6965,-73.9343 -1.7674,-158.3958 -22.9098,-228.61653 -7.4999,-24.90954 -22.141,-64.79656 -28.0377,-76.38347 -1.2596,-2.475 -5.7034,-11.64124 -9.8751,-20.36943 -14.1541,-29.6135 -34.71,-63.18255 -59.4777,-97.13057 -11.5621,-15.84767 -17.1978,-22.56952 -18.3339,-21.86739 -0.6614,0.4088 -0.8086,0.21397 -0.372,-0.49245 2.1366,-3.45718 -55.329,-63.94794 -78.3279,-82.45134 -1.2382,-0.99615 -8.1765,-6.66414 -15.4184,-12.59553 -17.9283,-14.68392 -26.7877,-21.14515 -50.1671,-36.58721 -27.5064,-18.1679 -50.421,-31.1831 -51.7134,-29.37249 -0.7367,1.03212 -0.8305,0.91993 -0.3835,-0.45856 0.499,-1.53922 -2.2655,-3.20787 -17.6557,-10.65672 -55.6197,-26.91997 -112.2411,-44.93788 -174.3643,-55.48571 -11.9708,-2.0325 -19.5701,-2.97613 -45.3905,-5.63623 -33.6977,-3.47166 -85.60787,-3.18869 -119.4926,0.65136 -36.77774,4.16792 -54.84958,7.5535 -98,18.35935 -46.37407,11.61312 -110.74733,38.9088 -157,66.57145 -27.40672,16.39132 -51.04099,32.83712 -49.88296,34.71084 0.41949,0.67875 0.24019,0.84043 -0.45532,0.41058 -2.21823,-1.37094 -26.39077,17.73504 -53.16172,42.01904 -47.38116,42.97958 -83.64901,87.22568 -120.04108,146.44787 -20.3712,33.15081 -44.14627,85.58687 -57.09945,125.93314 -6.46419,20.13455 -14.32743,53.4165 -19.72782,83.5 -5.64248,31.43211 -6.67897,39.33099 -8.07003,61.5 -2.78699,44.4158 -2.52234,62.1224 1.55445,104 5.46765,56.1648 24.67587,132.9249 43.94418,175.6102 1.46227,3.2394 5.54794,12.4148 9.07927,20.3898 22.7927,51.474 66.11547,116.9428 106.53871,161 11.69657,12.7481 37.95554,38.8209 50.32177,49.9652 9.96697,8.982 38.16962,31.6081 49.5,39.7123 39.80193,28.4686 91.95621,57.1548 135.49398,74.525 26.58305,10.6058 70.38984,23.9645 94.61017,28.851 8.1805,1.6504 15.44114,3.2042 16.13474,3.4529 0.69361,0.2487 7.78611,1.5595 15.76111,2.9129 29.26856,4.9671 87.7973,9.9468 104.5,8.8911 1.65,-0.1043 13.125,-0.4366 25.5,-0.7385 z M 943,1640 c 0,-0.55 0.47656,-1 1.05902,-1 0.58246,0 0.7809,0.45 0.44098,1 -0.33992,0.55 -0.81648,1 -1.05902,1 -0.24254,0 -0.44098,-0.45 -0.44098,-1 z m 118,-0.1667 c 0,-0.4583 0.675,-0.8333 1.5,-0.8333 0.825,0 1.5,0.375 1.5,0.8333 0,0.4584 -0.675,0.8334 -1.5,0.8334 -0.825,0 -1.5,-0.375 -1.5,-0.8334 z m -34.2383,-0.5406 c 1.2439,-0.2392 3.0439,-0.2301 4,0.02 0.956,0.2503 -0.062,0.446 -2.2617,0.4349 -2.2,-0.011 -2.9823,-0.2159 -1.7383,-0.4551 z m -205.68275,-32.876 c 0.048,-1.165 0.28494,-1.4019 0.60416,-0.6042 0.28887,0.7219 0.25335,1.5844 -0.0789,1.9167 -0.33229,0.3323 -0.56864,-0.2584 -0.52522,-1.3125 z M 1258.5,1607 c 0.3399,-0.55 0.8165,-1 1.059,-1 0.2426,0 0.441,0.45 0.441,1 0,0.55 -0.4766,1 -1.059,1 -0.5825,0 -0.7809,-0.45 -0.441,-1 z m -522.58333,-23.25 c -0.55546,-1.6664 -0.39287,-4.75 0.25045,-4.75 0.45808,0 0.83288,1.125 0.83288,2.5 0,2.0023 -0.68895,3.4332 -1.08333,2.25 z m 371.41663,-25.206 c 0,-0.8008 0.3824,-1.2197 0.8497,-0.9309 0.4673,0.2888 0.5907,0.944 0.2743,1.456 -0.8086,1.3084 -1.124,1.1611 -1.124,-0.5251 z m -413.72021,-41.727 c 0.28881,-0.4673 0.94401,-0.5907 1.45601,-0.2743 1.30838,0.8086 1.16106,1.124 -0.52511,1.124 -0.80081,0 -1.21971,-0.3824 -0.9309,-0.8497 z m 4.46586,-5.4003 c 0.048,-1.165 0.28494,-1.4019 0.60416,-0.6042 0.28887,0.7219 0.25335,1.5844 -0.0789,1.9167 -0.33229,0.3323 -0.56864,-0.2584 -0.52522,-1.3125 z m 35.17105,-34.135 c -0.6875,-0.2466 -1.25,-0.916 -1.25,-1.4875 0,-0.6594 0.51263,-0.6136 1.40275,0.1251 1.07718,0.894 1.52306,0.8644 1.92106,-0.1276 0.35574,-0.8866 0.54306,-0.9182 0.59724,-0.1007 0.0991,1.4946 -1.04294,2.1747 -2.67105,1.5907 z m -141.4375,-3.9648 c 0.72187,-0.2889 1.58438,-0.2534 1.91667,0.079 0.33229,0.3323 -0.25834,0.5687 -1.3125,0.5253 -1.16495,-0.048 -1.4019,-0.285 -0.60417,-0.6042 z m 4,0 c 0.72187,-0.2889 1.58438,-0.2534 1.91667,0.079 0.33229,0.3323 -0.25834,0.5687 -1.3125,0.5253 -1.16495,-0.048 -1.4019,-0.285 -0.60417,-0.6042 z m 4.45653,-0.01 c 0.97297,-0.2535 2.32297,-0.2369 3,0.037 0.67703,0.2739 -0.11903,0.4813 -1.76903,0.461 -1.65,-0.02 -2.20394,-0.2445 -1.23097,-0.4981 z M 656,1473.1667 c 0,-0.4584 0.675,-0.8334 1.5,-0.8334 0.825,0 1.5,0.375 1.5,0.8334 0,0.4583 -0.675,0.8333 -1.5,0.8333 -0.825,0 -1.5,-0.375 -1.5,-0.8333 z m 11.8125,0.1502 c 0.72187,-0.2889 1.58438,-0.2534 1.91667,0.079 0.33229,0.3323 -0.25834,0.5687 -1.3125,0.5253 -1.16495,-0.048 -1.4019,-0.285 -0.60417,-0.6042 z M 1349.5,1473 c 0.3399,-0.55 0.8165,-1 1.059,-1 0.2426,0 0.441,0.45 0.441,1 0,0.55 -0.4766,1 -1.059,1 -0.5825,0 -0.7809,-0.45 -0.441,-1 z m -771,-13 c 0.33992,-0.55 0.81648,-1 1.05902,-1 0.24254,0 0.44098,0.45 0.44098,1 0,0.55 -0.47656,1 -1.05902,1 -0.58246,0 -0.7809,-0.45 -0.44098,-1 z m 115.0771,-21.8507 c -0.43943,-1.3315 -0.34807,-2.7783 0.2107,-3.3371 1.39091,-1.3909 2.01821,0.2334 1.23111,3.1878 l -0.66605,2.5 z m -82.77672,-1.9948 c -1.60228,-1.6277 -1.56295,-1.7379 0.68661,-1.9241 1.82108,-0.1507 2.35085,0.2723 2.23682,1.786 -0.17955,2.3836 -0.68932,2.4077 -2.92343,0.1381 z m 783.65842,-1.2211 c -0.3193,-0.5167 0.3352,-0.7997 1.4545,-0.6289 2.8003,0.4274 3.4119,1.2454 1.0635,1.4223 -1.0656,0.08 -2.1987,-0.2768 -2.518,-0.7934 z M 616,1431.441 c 0,-0.8575 0.45734,-1.2764 1.01631,-0.9309 0.55897,0.3454 0.75742,1.047 0.44098,1.559 -0.85723,1.387 -1.45729,1.1284 -1.45729,-0.6281 z M 650.5,1395 c -1.75921,-0.756 -1.6618,-0.8679 0.80902,-0.9297 1.63221,-0.041 2.5501,0.3486 2.19098,0.9297 -0.33992,0.55 -0.70398,0.9684 -0.80902,0.9297 -0.10504,-0.039 -1.09098,-0.457 -2.19098,-0.9297 z m 128.83333,-0.3628 c 0,-0.851 0.72024,-1.1744 1.91787,-0.8613 1.47994,0.3871 1.61314,0.6947 0.58333,1.3475 -1.88837,1.197 -2.5012,1.0779 -2.5012,-0.4862 z m 446.26967,0.5295 c -0.2833,-0.4584 0.1204,-0.8334 0.897,-0.8334 0.7766,0 1.1803,0.375 0.897,0.8334 -0.2833,0.4583 -0.6869,0.8333 -0.897,0.8333 -0.2101,0 -0.6137,-0.375 -0.897,-0.8333 z m 133.4496,-0.1342 c -0.8096,-0.5003 -0.3261,-0.7825 1.3406,-0.7825 2.9095,0 3.2555,0.2871 1.2661,1.0505 -0.7374,0.2829 -1.9104,0.1623 -2.6067,-0.268 z m -802.2401,-0.7156 c 0.72187,-0.2889 1.58438,-0.2534 1.91667,0.079 0.33229,0.3323 -0.25834,0.5687 -1.3125,0.5253 -1.16495,-0.048 -1.4019,-0.285 -0.60417,-0.6042 z m 84,0 c 0.72187,-0.2889 1.58438,-0.2534 1.91667,0.079 0.33229,0.3323 -0.25834,0.5687 -1.3125,0.5253 -1.16495,-0.048 -1.4019,-0.285 -0.60417,-0.6042 z m 5,0 c 0.72187,-0.2889 1.58438,-0.2534 1.91667,0.079 0.33229,0.3323 -0.25834,0.5687 -1.3125,0.5253 -1.16495,-0.048 -1.4019,-0.285 -0.60417,-0.6042 z M 1353,1393.941 c 0,-0.5825 0.45,-0.7809 1,-0.441 0.55,0.3399 1,0.8165 1,1.059 0,0.2426 -0.45,0.441 -1,0.441 -0.55,0 -1,-0.4766 -1,-1.059 z m -696.26667,-3.0651 c 0.67834,-0.6834 1.48524,-0.9907 1.79313,-0.6828 0.30789,0.3079 -0.24711,0.8671 -1.23333,1.2426 -1.4252,0.5427 -1.54006,0.4278 -0.5598,-0.5598 z m 118.07917,-0.559 c 0.72187,-0.2889 1.58438,-0.2534 1.91667,0.079 0.33229,0.3323 -0.25834,0.5687 -1.3125,0.5253 -1.16495,-0.048 -1.4019,-0.285 -0.60417,-0.6042 z M 820.19495,1364.5 c 0.0204,-1.65 0.2445,-2.2039 0.49804,-1.231 0.25354,0.973 0.23687,2.323 -0.0371,3 -0.27393,0.6771 -0.48137,-0.119 -0.46099,-1.769 z M 612,1358 c 0,-0.55 0.47656,-1 1.05902,-1 0.58246,0 0.7809,0.45 0.44098,1 -0.33992,0.55 -0.81648,1 -1.05902,1 -0.24254,0 -0.44098,-0.45 -0.44098,-1 z m -81.63929,-1.6885 c 0.37474,-0.6537 -0.11561,-1.6415 -1.08968,-2.195 -1.59703,-0.9075 -1.56161,-0.9918 0.36056,-0.8576 2.10243,0.1468 2.5716,1.9443 0.9037,3.4622 -0.47077,0.4284 -0.54933,0.2441 -0.17458,-0.4096 z M 611,1354.5 l -2.5,-1.4291 2.58333,-0.035 c 1.64538,-0.023 2.58334,0.5092 2.58334,1.4646 0,0.825 -0.0375,1.4841 -0.0833,1.4646 -0.0458,-0.02 -1.20833,-0.6786 -2.58333,-1.4646 z m 127.39695,-0.6667 c -0.28324,-0.4583 1.08657,-0.8333 3.04403,-0.8333 1.95746,0 3.55902,0.1739 3.55902,0.3865 0,0.8212 -6.1159,1.235 -6.60305,0.4468 z m -135.58445,-0.5164 c 0.72187,-0.2889 1.58438,-0.2534 1.91667,0.079 0.33229,0.3323 -0.25834,0.5687 -1.3125,0.5253 -1.16495,-0.048 -1.4019,-0.285 -0.60417,-0.6042 z m 72,0 c 0.72187,-0.2889 1.58438,-0.2534 1.91667,0.079 0.33229,0.3323 -0.25834,0.5687 -1.3125,0.5253 -1.16495,-0.048 -1.4019,-0.285 -0.60417,-0.6042 z m 4,0 c 0.72187,-0.2889 1.58438,-0.2534 1.91667,0.079 0.33229,0.3323 -0.25834,0.5687 -1.3125,0.5253 -1.16495,-0.048 -1.4019,-0.285 -0.60417,-0.6042 z m 68,0 c 0.72187,-0.2889 1.58438,-0.2534 1.91667,0.079 0.33229,0.3323 -0.25834,0.5687 -1.3125,0.5253 -1.16495,-0.048 -1.4019,-0.285 -0.60417,-0.6042 z m 4,0 c 0.72187,-0.2889 1.58438,-0.2534 1.91667,0.079 0.33229,0.3323 -0.25834,0.5687 -1.3125,0.5253 -1.16495,-0.048 -1.4019,-0.285 -0.60417,-0.6042 z m 70.45653,-0.01 c 0.97297,-0.2535 2.32297,-0.2369 3,0.037 0.67703,0.2739 -0.11903,0.4813 -1.76903,0.461 -1.65,-0.02 -2.20394,-0.2445 -1.23097,-0.4981 z m 9.48097,0.031 c 0.6875,-0.2774 1.8125,-0.2774 2.5,0 0.6875,0.2774 0.125,0.5044 -1.25,0.5044 -1.375,0 -1.9375,-0.227 -1.25,-0.5044 z m 26.0625,-0.021 c 0.72187,-0.2889 1.58438,-0.2534 1.91667,0.079 0.33229,0.3323 -0.25834,0.5687 -1.3125,0.5253 -1.16495,-0.048 -1.4019,-0.285 -0.60417,-0.6042 z m 324.9375,0.021 c 0.6875,-0.2774 1.8125,-0.2774 2.5,0 0.6875,0.2774 0.125,0.5044 -1.25,0.5044 -1.375,0 -1.9375,-0.227 -1.25,-0.5044 z m 49.0625,-0.021 c 0.7219,-0.2889 1.5844,-0.2534 1.9167,0.079 0.3323,0.3323 -0.2584,0.5687 -1.3125,0.5253 -1.165,-0.048 -1.4019,-0.285 -0.6042,-0.6042 z m 4,0 c 0.7219,-0.2889 1.5844,-0.2534 1.9167,0.079 0.3323,0.3323 -0.2584,0.5687 -1.3125,0.5253 -1.165,-0.048 -1.4019,-0.285 -0.6042,-0.6042 z m 3.9375,0.021 c 0.6875,-0.2774 1.8125,-0.2774 2.5,0 0.6875,0.2774 0.125,0.5044 -1.25,0.5044 -1.375,0 -1.9375,-0.227 -1.25,-0.5044 z m 240.0625,-0.021 c 0.7219,-0.2889 1.5844,-0.2534 1.9167,0.079 0.3323,0.3323 -0.2584,0.5687 -1.3125,0.5253 -1.165,-0.048 -1.4019,-0.285 -0.6042,-0.6042 z m 4,0 c 0.7219,-0.2889 1.5844,-0.2534 1.9167,0.079 0.3323,0.3323 -0.2584,0.5687 -1.3125,0.5253 -1.165,-0.048 -1.4019,-0.285 -0.6042,-0.6042 z m 3.9375,0.021 c 0.6875,-0.2774 1.8125,-0.2774 2.5,0 0.6875,0.2774 0.125,0.5044 -1.25,0.5044 -1.375,0 -1.9375,-0.227 -1.25,-0.5044 z m 8.0625,-0.021 c 0.7219,-0.2889 1.5844,-0.2534 1.9167,0.079 0.3323,0.3323 -0.2584,0.5687 -1.3125,0.5253 -1.165,-0.048 -1.4019,-0.285 -0.6042,-0.6042 z m -960.24065,-3.2221 c 0.88306,-0.883 3.42815,-0.9339 3.42815,-0.069 0,0.4672 -0.88069,0.7831 -1.95709,0.702 -1.07641,-0.081 -1.73838,-0.3662 -1.47106,-0.6335 z M 898.5,1350 c -0.33992,-0.55 -0.14148,-1 0.44098,-1 0.58246,0 1.05902,0.45 1.05902,1 0,0.55 -0.19844,1 -0.44098,1 -0.24254,0 -0.7191,-0.45 -1.05902,-1 z m 408.9057,-0.3318 c 0.3269,-1.0075 0.6228,-2.3575 0.6577,-3 0.035,-0.6425 0.4945,-0.09 1.0215,1.227 0.5269,1.3173 0.7234,2.6298 0.4366,2.9167 -0.2868,0.2868 -0.5284,-0.1161 -0.5368,-0.8952 -0.013,-1.1721 -0.2016,-1.1577 -1.0943,0.083 -0.8974,1.2475 -0.979,1.1917 -0.4847,-0.3318 z m -690.94682,-0.7347 c -0.36253,-0.5866 -0.44468,-1.281 -0.18255,-1.5432 0.26212,-0.2621 0.74306,0.2179 1.06875,1.0666 0.67618,1.7621 0.0998,2.072 -0.8862,0.4766 z M 1227.1579,1340 c 0,-1.375 0.227,-1.9375 0.5044,-1.25 0.2774,0.6875 0.2774,1.8125 0,2.5 -0.2774,0.6875 -0.5044,0.125 -0.5044,-1.25 z m -0.079,-7.5833 c 0.048,-1.165 0.285,-1.4019 0.6042,-0.6042 0.2889,0.7219 0.2534,1.5844 -0.079,1.9167 -0.3323,0.3323 -0.5687,-0.2584 -0.5253,-1.3125 z M 775.75,1331.2 c -2.14703,-0.4253 -1.87537,40.4327 -2.08074,-312.95 L 773.5,727.00002 797,726.90971 c 76.01504,-0.29215 254.02,0.0502 267.9584,0.51537 21.6258,0.7217 34.7053,2.06525 50.5416,5.19172 16.3265,3.22324 25.994,5.82873 35.3094,9.51627 52.7484,20.8806 85.229,58.4736 96.2565,111.40711 2.9801,14.30524 3.2538,39.26465 0.5806,52.95982 -6.271,32.12745 -17.6786,54.53524 -39.6373,77.85928 -7.8438,8.33161 -14.5001,13.52812 -26.8011,20.92362 l -9.2919,5.5864 4.7919,2.147 c 2.6355,1.1809 6.5919,2.8699 8.7919,3.7536 6.2445,2.508 22.2364,11.9643 30.5,18.0351 10.4821,7.7007 26.428,24.1671 33.2344,34.3195 18.6667,27.8426 26.7956,58.4629 25.4491,95.8629 -0.9487,26.3534 -6,45.8263 -18.2908,70.5126 -16.6985,33.539 -42.5648,59.373 -74.3843,74.2911 -22.8387,10.7076 -52.457,17.2444 -92.0084,20.3064 -10.9748,0.8496 -58.8541,1.2363 -164,1.3245 -81.675,0.069 -149.2875,-0.031 -150.25,-0.222 z m 298.3855,-105.7983 c 28.8946,-3.7488 48.5916,-13.2742 58.9302,-28.4985 9.7597,-14.3717 13.9076,-28.6605 14.0512,-48.4032 0.087,-11.9667 -1.2842,-20.1607 -5.1429,-30.7338 -9.9005,-27.128 -38.2777,-44.3379 -78.6571,-47.703 -5.9493,-0.4958 -45.0169,-0.9429 -86.8169,-0.9936 l -76,-0.092 -0.16088,79.0112 -0.16088,79.0113 h 80.81914 c 68.24282,0 82.73612,-0.2487 93.13812,-1.5983 z m -134.79934,-34.235 c -0.87222,-1.3967 -0.85812,-1.8334 0.0592,-1.8334 0.66228,0 1.26629,0.825 1.34224,1.8334 0.076,1.0083 0.0493,1.8333 -0.0592,1.8333 -0.10852,0 -0.71253,-0.825 -1.34224,-1.8333 z m 167.74274,-36.75 c 0.048,-1.165 0.285,-1.4019 0.6042,-0.6042 0.2889,0.7219 0.2534,1.5844 -0.079,1.9167 -0.3323,0.3323 -0.5687,-0.2584 -0.5253,-1.3125 z m -126.53619,-5.3476 c -0.31644,-0.512 -0.11799,-1.2136 0.44098,-1.559 0.55897,-0.3455 1.01631,0.073 1.01631,0.9309 0,1.7565 -0.60006,2.0151 -1.45729,0.6281 z M 1107,1148.5 c 0,-0.825 0.1769,-1.5 0.393,-1.5 0.2162,0 0.652,0.675 0.9686,1.5 0.3166,0.825 0.1398,1.5 -0.393,1.5 -0.5327,0 -0.9686,-0.675 -0.9686,-1.5 z m -37.1191,-185.35036 c 25.655,-6.70635 40.6383,-17.25211 49.2034,-34.63091 4.6775,-9.49058 6.9157,-20.05734 6.9157,-32.64886 0,-37.95048 -22.3264,-61.1161 -62.0457,-64.37782 -4.6499,-0.38184 -8.835,-0.92704 -9.3004,-1.21156 -0.4654,-0.28452 -35.2279,-0.65274 -77.25,-0.81827 L 901,829.16126 l -0.19387,15.66937 c -0.10663,8.61815 -0.21913,39.42878 -0.25,68.46805 L 900.5,966.09736 981,965.71891 c 78.9954,-0.37138 80.6567,-0.4194 88.8809,-2.56927 z m -85.71906,-16.48297 c 0.13068,-1.94048 0.76392,-3.33334 1.51545,-3.33334 0.95983,0 1.00826,0.34064 0.18881,1.32801 -0.60618,0.7304 -0.86617,2.2304 -0.57774,3.33333 0.28842,1.10293 0.10243,2.00533 -0.41331,2.00533 -0.51573,0 -0.83668,-1.5 -0.71321,-3.33333 z m 133.91706,-24.25 c 0.048,-1.16495 0.285,-1.4019 0.6042,-0.60417 0.2889,0.72187 0.2534,1.58438 -0.079,1.91667 -0.3323,0.33229 -0.5687,-0.25834 -0.5253,-1.3125 z M 1226,1321 c 0,-0.55 0.4766,-1 1.059,-1 0.5825,0 0.7809,0.45 0.441,1 -0.3399,0.55 -0.8165,1 -1.059,1 -0.2426,0 -0.441,-0.45 -0.441,-1 z m 45.25,-7.6068 c 0,-1.6667 0.2822,-2.1502 0.7825,-1.3406 0.4303,0.6963 0.5509,1.8693 0.268,2.6067 -0.7634,1.9894 -1.0505,1.6434 -1.0505,-1.2661 z m -700.51667,-0.5173 c 0.67834,-0.6834 1.48524,-0.9907 1.79313,-0.6828 0.30789,0.3079 -0.24711,0.8671 -1.23333,1.2426 -1.4252,0.5427 -1.54006,0.4278 -0.5598,-0.5598 z M 529,1272.8333 c 0,-0.4583 0.675,-0.8333 1.5,-0.8333 0.825,0 1.5,0.375 1.5,0.8333 0,0.4584 -0.675,0.8334 -1.5,0.8334 -0.825,0 -1.5,-0.375 -1.5,-0.8334 z m 127.70233,-0.1666 c -0.28141,-0.7334 0.0775,-1.3334 0.79767,-1.3334 0.72013,0 1.07908,0.6 0.79767,1.3334 C 658.01626,1273.4 657.65731,1274 657.5,1274 c -0.15731,0 -0.51626,-0.6 -0.79767,-1.3333 z M 1349,1273.059 c 0,-0.5175 0.4448,-1.2159 0.9885,-1.5519 0.5669,-0.3504 0.7346,0.051 0.3931,0.941 -0.6648,1.7324 -1.3816,2.0493 -1.3816,0.6109 z m 126.6396,-0.5557 c -0.343,-0.8941 0.1496,-1.3196 1.4173,-1.2241 2.2736,0.1713 2.5558,1.2717 0.5259,2.0507 -0.7795,0.2991 -1.6539,-0.073 -1.9432,-0.8266 z m 82.1104,-1.1656 c 0.6875,-0.2774 1.8125,-0.2774 2.5,0 0.6875,0.2774 0.125,0.5044 -1.25,0.5044 -1.375,0 -1.9375,-0.227 -1.25,-0.5044 z m 49.8143,-16.6308 c 0.3755,-0.9862 0.9347,-1.5412 1.2426,-1.2334 0.3079,0.3079 6e-4,1.1148 -0.6828,1.7932 -0.9876,0.9802 -1.1025,0.8654 -0.5598,-0.5598 z M 570,1232 c -0.825,-0.5332 -1.275,-1.0107 -1,-1.0612 0.275,-0.05 1.25634,-0.238 2.18076,-0.4167 1.10054,-0.2127 1.49512,0.159 1.14301,1.0765 -0.63259,1.6486 -0.44425,1.616 -2.32377,0.4014 z m -41.12756,-41.75 c -1.24387,-1.5861 -1.2085,-1.6214 0.37756,-0.3776 1.66575,1.3064 2.19548,2.1276 1.37244,2.1276 -0.20765,0 -0.99515,-0.7875 -1.75,-1.75 z m 163.71166,0.1086 c -0.52667,-1.3725 -0.38034,-1.4344 0.89301,-0.3776 1.73524,1.4401 1.91584,2.019 0.62988,2.019 -0.49116,0 -1.17646,-0.7386 -1.52289,-1.6414 z m 5.2284,-4.0417 c 0.72187,-0.2889 1.58438,-0.2534 1.91667,0.079 0.33229,0.3323 -0.25834,0.5687 -1.3125,0.5253 -1.16495,-0.048 -1.4019,-0.285 -0.60417,-0.6042 z m -41.73355,-41.9002 c 0.048,-1.165 0.28494,-1.4019 0.60416,-0.6042 0.28887,0.7219 0.25335,1.5844 -0.0789,1.9167 -0.33229,0.3323 -0.56864,-0.2584 -0.52522,-1.3125 z M 693,1108 c 0,-0.55 0.45,-1 1,-1 0.55,0 1,0.45 1,1 0,0.55 -0.45,1 -1,1 -0.55,0 -1,-0.45 -1,-1 z m -141.1875,-3.6831 c 0.72187,-0.2889 1.58438,-0.2534 1.91667,0.079 0.33229,0.3323 -0.25834,0.5687 -1.3125,0.5253 -1.16495,-0.048 -1.4019,-0.285 -0.60417,-0.6042 z m 154,0 c 0.72187,-0.2889 1.58438,-0.2534 1.91667,0.079 0.33229,0.3323 -0.25834,0.5687 -1.3125,0.5253 -1.16495,-0.048 -1.4019,-0.285 -0.60417,-0.6042 z m 666.4375,-0.01 c 0.9625,-0.2516 2.5375,-0.2516 3.5,0 0.9625,0.2515 0.175,0.4573 -1.75,0.4573 -1.925,0 -2.7125,-0.2058 -1.75,-0.4573 z m 11.5625,0.01 c 0.7219,-0.2889 1.5844,-0.2534 1.9167,0.079 0.3323,0.3323 -0.2584,0.5687 -1.3125,0.5253 -1.165,-0.048 -1.4019,-0.285 -0.6042,-0.6042 z m 84,0 c 0.7219,-0.2889 1.5844,-0.2534 1.9167,0.079 0.3323,0.3323 -0.2584,0.5687 -1.3125,0.5253 -1.165,-0.048 -1.4019,-0.285 -0.6042,-0.6042 z M 1271,1068 c 0,-1.1 0.422,-2 0.9379,-2 0.5158,0 0.87,0.9 0.7871,2 -0.083,1.1 -0.5048,2 -0.9378,2 -0.433,0 -0.7872,-0.9 -0.7872,-2 z m -799.1875,-1.6831 c 0.72187,-0.2889 1.58438,-0.2534 1.91667,0.079 0.33229,0.3323 -0.25834,0.5687 -1.3125,0.5253 -1.16495,-0.048 -1.4019,-0.285 -0.60417,-0.6042 z m 112,-3 c 0.72187,-0.2889 1.58438,-0.2534 1.91667,0.079 0.33229,0.3323 -0.25834,0.5687 -1.3125,0.5253 -1.16495,-0.048 -1.4019,-0.285 -0.60417,-0.6042 z m 742,0 c 0.7219,-0.2889 1.5844,-0.2534 1.9167,0.079 0.3323,0.3323 -0.2584,0.5687 -1.3125,0.5253 -1.165,-0.048 -1.4019,-0.285 -0.6042,-0.6042 z m 20,0 c 0.7219,-0.2889 1.5844,-0.2534 1.9167,0.079 0.3323,0.3323 -0.2584,0.5687 -1.3125,0.5253 -1.165,-0.048 -1.4019,-0.285 -0.6042,-0.6042 z M 1639,1062.441 c 0,-0.8575 0.45,-1.2809 1,-0.941 0.55,0.3399 1,1.0415 1,1.559 0,0.5176 -0.45,0.941 -1,0.941 -0.55,0 -1,-0.7016 -1,-1.559 z m 0.2697,-35.5103 c -0.173,-2.2965 0.2984,-2.4986 1.0796,-0.4627 0.3099,0.8074 0.2264,1.6762 -0.1854,1.9307 -0.4118,0.2545 -0.8142,-0.4061 -0.8942,-1.468 z m -0.1051,-79.76473 c 0.09,-2.29128 0.49,-4.16597 0.8894,-4.16597 0.7107,0 0.121,7.09537 -0.6578,7.91597 -0.2171,0.22879 -0.3214,-1.45871 -0.2316,-3.75 z m -368.0857,-19.7493 c 0.048,-1.16495 0.285,-1.4019 0.6042,-0.60417 0.2889,0.72187 0.2534,1.58438 -0.079,1.91667 -0.3323,0.33229 -0.5687,-0.25834 -0.5253,-1.3125 z M 442,798.3578 c 0,-0.53655 0.69982,-1.84905 1.55517,-2.91667 1.46637,-1.83031 1.48719,-1.7984 0.36454,0.55887 C 442.4619,799.06103 442,799.62834 442,798.3578 Z m 825,-17.29444 c 0,-0.51515 -1.4625,-1.11814 -3.25,-1.33996 -2.9369,-0.36447 -2.8566,-0.41875 0.8333,-0.56336 3.0341,-0.11892 4.0834,0.2254 4.0834,1.33996 0,0.825 -0.375,1.5 -0.8334,1.5 -0.4583,0 -0.8333,-0.42149 -0.8333,-0.93664 z m -527.73097,-1.75635 c 0.97297,-0.25354 2.32297,-0.23687 3,0.0371 0.67703,0.27393 -0.11903,0.48137 -1.76903,0.46099 -1.65,-0.0204 -2.20394,-0.2445 -1.23097,-0.49804 z m 467.57647,-4.20649 c -3.6431,-3.31244 -3.5607,-4.3227 0.094,-1.15303 1.235,1.07112 2.7663,2.13451 3.403,2.36309 0.6366,0.22859 0.863,0.73426 0.503,1.12372 -0.36,0.38946 -2.16,-0.66075 -4,-2.33378 z m 64.967,1.21637 c 0.7219,-0.28887 1.5844,-0.25335 1.9167,0.0789 0.3323,0.33229 -0.2584,0.56864 -1.3125,0.52522 -1.165,-0.048 -1.4019,-0.28494 -0.6042,-0.60416 z m 245.2664,-0.90022 c 0.048,-1.16495 0.285,-1.4019 0.6042,-0.60417 0.2889,0.72187 0.2534,1.58438 -0.079,1.91667 -0.3323,0.33229 -0.5687,-0.25834 -0.5253,-1.3125 z M 1226.6667,741.33333 C 1225.7345,740.4012 1225.8346,739 1226.8333,739 c 0.4584,0 0.8334,0.675 0.8334,1.5 0,1.69935 -0.073,1.76025 -1,0.83333 z m -697.10241,-6.62646 c 0.37553,-0.98622 0.93469,-1.54122 1.24258,-1.23333 0.30789,0.30789 6.4e-4,1.11479 -0.68278,1.79313 -0.98762,0.98026 -1.10248,0.8654 -0.5598,-0.5598 z M 600.5,735 c 0.33992,-0.55 0.81648,-1 1.05902,-1 0.24254,0 0.44098,0.45 0.44098,1 0,0.55 -0.47656,1 -1.05902,1 -0.58246,0 -0.7809,-0.45 -0.44098,-1 z m 11.10301,-0.16667 C 611.88627,734.375 612.54148,734 613.05902,734 c 0.51754,0 0.94098,0.375 0.94098,0.83333 0,0.45834 -0.65521,0.83334 -1.45601,0.83334 -0.80081,0 -1.22425,-0.375 -0.94098,-0.83334 z m 621.13029,0.0426 c 0.6784,-0.68342 1.4853,-0.99067 1.7932,-0.68278 0.3078,0.30789 -0.2472,0.86705 -1.2334,1.24258 -1.4252,0.54268 -1.54,0.42782 -0.5598,-0.5598 z M 1475.5,735 c -0.7822,-1.2656 0.5416,-1.2656 2.5,0 1.2927,0.8354 1.2663,0.97149 -0.191,0.98469 -0.93,0.008 -1.9691,-0.43469 -2.309,-0.98469 z m 97.5,-3.05902 c 0,-0.58246 0.45,-0.7809 1,-0.44098 0.55,0.33992 1,0.81648 1,1.05902 0,0.24254 -0.45,0.44098 -1,0.44098 -0.55,0 -1,-0.47656 -1,-1.05902 z M 820.15789,720 c 0,-1.375 0.22698,-1.9375 0.50439,-1.25 0.27741,0.6875 0.27741,1.8125 0,2.5 -0.27741,0.6875 -0.50439,0.125 -0.50439,-1.25 z m 744.30101,-4.06653 c -0.3626,-0.58659 -0.4447,-1.281 -0.1826,-1.54313 0.2622,-0.26213 0.7431,0.21781 1.0688,1.06653 0.6762,1.76211 0.1,2.07206 -0.8862,0.4766 z M 820.19495,699.5 c 0.0204,-1.65 0.2445,-2.20394 0.49804,-1.23097 0.25354,0.97297 0.23687,2.32297 -0.0371,3 -0.27393,0.67703 -0.48137,-0.11903 -0.46099,-1.76903 z m 447.17145,-0.28388 c 0.4303,-0.69623 -0.6932,-1.23572 -3.0955,-1.4864 l -3.7709,-0.39351 4.25,-0.16811 c 4.0944,-0.16194 5.5007,0.94087 3.0955,2.42739 -0.6921,0.42772 -0.884,0.27577 -0.4791,-0.37937 z M 495.5,698 c -0.37317,-0.6038 0.89112,-0.97215 3.19098,-0.92971 3.04171,0.0561 3.40613,0.24341 1.80902,0.92971 -2.74848,1.18106 -4.27006,1.18106 -5,0 z m 14.3125,-0.68311 c 0.72187,-0.28887 1.58438,-0.25335 1.91667,0.0789 0.33229,0.33229 -0.25834,0.56864 -1.3125,0.52522 -1.16495,-0.048 -1.4019,-0.28494 -0.60417,-0.60416 z m 313.9375,-0.0226 c 1.2375,-0.23836 3.2625,-0.23836 4.5,0 1.2375,0.23835 0.225,0.43337 -2.25,0.43337 -2.475,0 -3.4875,-0.19502 -2.25,-0.43337 z m 358.5,0.0164 c 0.9625,-0.25152 2.5375,-0.25152 3.5,0 0.9625,0.25153 0.175,0.45733 -1.75,0.45733 -1.925,0 -2.7125,-0.2058 -1.75,-0.45733 z m 247.5,0.0271 c 0.6875,-0.27741 1.8125,-0.27741 2.5,0 0.6875,0.27741 0.125,0.50439 -1.25,0.50439 -1.375,0 -1.9375,-0.22698 -1.25,-0.50439 z m 80.519,-0.0307 c 0.973,-0.25354 2.323,-0.23687 3,0.0371 0.6771,0.27393 -0.119,0.48137 -1.769,0.46099 -1.65,-0.0204 -2.2039,-0.2445 -1.231,-0.49804 z M 1189.5,695 c -0.3399,-0.55 -0.1415,-1 0.441,-1 0.5824,0 1.059,0.45 1.059,1 0,0.55 -0.1984,1 -0.441,1 -0.2425,0 -0.7191,-0.45 -1.059,-1 z m 327.3125,-38.68311 c 0.7219,-0.28887 1.5844,-0.25335 1.9167,0.0789 0.3323,0.33229 -0.2584,0.56864 -1.3125,0.52522 -1.165,-0.048 -1.4019,-0.28494 -0.6042,-0.60416 z m -3.189,-12.85555 c -0.9649,-2.51469 -0.6803,-3.16355 0.4986,-1.13634 0.5837,1.00375 0.8506,2.03566 0.5931,2.29313 -0.2575,0.25747 -0.7487,-0.26309 -1.0917,-1.15679 z M 1349,616 c 0,-0.55 0.4766,-1 1.059,-1 0.5825,0 0.7809,0.45 0.441,1 -0.3399,0.55 -0.8165,1 -1.059,1 -0.2426,0 -0.441,-0.45 -0.441,-1 z m 82,0 c 0,-0.55 0.4766,-1 1.059,-1 0.5825,0 0.7809,0.45 0.441,1 -0.3399,0.55 -0.8165,1 -1.059,1 -0.2426,0 -0.441,-0.45 -0.441,-1 z m -774.25,-0.66228 c 0.6875,-0.27741 1.8125,-0.27741 2.5,0 0.6875,0.27741 0.125,0.50439 -1.25,0.50439 -1.375,0 -1.9375,-0.22698 -1.25,-0.50439 z m 189.0625,-0.0208 c 0.72187,-0.28887 1.58438,-0.25335 1.91667,0.0789 0.33229,0.33229 -0.25834,0.56864 -1.3125,0.52522 -1.16495,-0.048 -1.4019,-0.28494 -0.60417,-0.60416 z m 9.9375,0.0208 c 0.6875,-0.27741 1.8125,-0.27741 2.5,0 0.6875,0.27741 0.125,0.50439 -1.25,0.50439 -1.375,0 -1.9375,-0.22698 -1.25,-0.50439 z m 129.0625,-0.0208 c 0.72187,-0.28887 1.58438,-0.25335 1.91667,0.0789 0.33229,0.33229 -0.25834,0.56864 -1.3125,0.52522 -1.16495,-0.048 -1.4019,-0.28494 -0.60417,-0.60416 z m 5,0 c 0.72187,-0.28887 1.58438,-0.25335 1.91667,0.0789 0.33229,0.33229 -0.25834,0.56864 -1.3125,0.52522 -1.16495,-0.048 -1.4019,-0.28494 -0.60417,-0.60416 z M 1435.232,611 c 0,-1.925 0.2058,-2.7125 0.4573,-1.75 0.2516,0.9625 0.2516,2.5375 0,3.5 -0.2515,0.9625 -0.4573,0.175 -0.4573,-1.75 z M 1353,611.94098 c 0,-0.58246 0.45,-0.7809 1,-0.44098 0.55,0.33992 1,0.81648 1,1.05902 0,0.24254 -0.45,0.44098 -1,0.44098 -0.55,0 -1,-0.47656 -1,-1.05902 z m 0.079,-6.52431 c 0.048,-1.16495 0.285,-1.4019 0.6042,-0.60417 0.2889,0.72187 0.2534,1.58438 -0.079,1.91667 -0.3323,0.33229 -0.5687,-0.25834 -0.5253,-1.3125 z M 1465,589 c -1.2683,-1.1 -1.9706,-2 -1.5607,-2 0.4099,0 1.8894,0.9 3.2878,2 1.3985,1.1 2.1008,2 1.5608,2 -0.54,0 -2.0196,-0.9 -3.2879,-2 z m -13,-12 c -0.9013,-0.58246 -1.0246,-0.97549 -0.309,-0.98469 0.655,-0.008 1.4691,0.43469 1.809,0.98469 0.7673,1.24153 0.4211,1.24153 -1.5,0 z m -755,-1.78189 c 0,-0.43004 1.2375,-0.85055 2.75,-0.93447 2.37301,-0.13165 2.47583,-0.0341 0.75,0.71161 -2.60469,1.12546 -3.5,1.18247 -3.5,0.22286 z M 779,575 c 0,-0.55 0.45,-1 1,-1 0.55,0 1,0.45 1,1 0,0.55 -0.45,1 -1,1 -0.55,0 -1,-0.45 -1,-1 z m 164.8125,-0.68311 c 0.72187,-0.28887 1.58438,-0.25335 1.91667,0.0789 0.33229,0.33229 -0.25834,0.56864 -1.3125,0.52522 -1.16495,-0.048 -1.4019,-0.28494 -0.60417,-0.60416 z M 698.73333,496.87591 c 0.67834,-0.68342 1.48524,-0.99067 1.79313,-0.68278 0.30789,0.30789 -0.24711,0.86705 -1.23333,1.24258 -1.4252,0.54268 -1.54006,0.42782 -0.5598,-0.5598 z M 1311.9167,479.75 c -0.5555,-1.66636 -0.3929,-4.75 0.2504,-4.75 0.4581,0 0.8329,1.125 0.8329,2.5 0,2.00227 -0.6889,3.43316 -1.0833,2.25 z M 759,464.94098 c 0,-0.58246 0.45,-0.7809 1,-0.44098 0.55,0.33992 1,0.81648 1,1.05902 0,0.24254 -0.45,0.44098 -1,0.44098 -0.55,0 -1,-0.47656 -1,-1.05902 z m 307.0703,-8.85765 c -0.039,-2.97916 0.1124,-5.22916 0.3357,-5 0.9138,0.9378 1.2653,6.55264 0.5269,8.41667 -0.5465,1.37935 -0.8141,0.31906 -0.8626,-3.41667 z m -125.99135,-3.66666 c 0.048,-1.16495 0.28494,-1.4019 0.60416,-0.60417 0.28887,0.72187 0.25335,1.58438 -0.0789,1.91667 -0.33229,0.33229 -0.56864,-0.25834 -0.52522,-1.3125 z M 571.66667,1723.3333 c -0.93214,-0.9321 -0.83205,-2.3333 0.16666,-2.3333 0.45834,0 0.83334,0.675 0.83334,1.5 0,1.6994 -0.0731,1.7603 -1,0.8333 z M 533.5,1678 c 0.33992,-0.55 0.81648,-1 1.05902,-1 0.24254,0 0.44098,0.45 0.44098,1 0,0.55 -0.47656,1 -1.05902,1 -0.58246,0 -0.7809,-0.45 -0.44098,-1 z m 84.11309,-0.183 c 0.28881,-0.4673 0.94401,-0.5907 1.45601,-0.2743 1.30838,0.8086 1.16106,1.124 -0.52511,1.124 -0.80081,0 -1.21971,-0.3824 -0.9309,-0.8497 z M 571,1640.559 c 0,-0.8574 0.45,-1.559 1,-1.559 0.55,0 1,0.4234 1,0.941 0,0.5175 -0.45,1.2191 -1,1.559 -0.55,0.3399 -1,-0.083 -1,-0.941 z M 489,1640 c 0,-0.55 0.47656,-1 1.05902,-1 0.58246,0 0.7809,0.45 0.44098,1 -0.33992,0.55 -0.81648,1 -1.05902,1 -0.24254,0 -0.44098,-0.45 -0.44098,-1 z m 945.5,0 c -0.3399,-0.55 -0.1415,-1 0.441,-1 0.5824,0 1.059,0.45 1.059,1 0,0.55 -0.1984,1 -0.441,1 -0.2425,0 -0.7191,-0.45 -1.059,-1 z m -860.13888,-3.2247 c -0.61772,-0.9995 1.57617,-0.8779 4.13888,0.2294 1.70459,0.7366 1.58201,0.8407 -0.82987,0.705 -1.55642,-0.088 -3.04548,-0.508 -3.30901,-0.9344 z m 855.21078,0.3195 c 0.883,-0.883 3.4281,-0.9339 3.4281,-0.069 0,0.4672 -0.8807,0.7831 -1.9571,0.702 -1.0764,-0.081 -1.7384,-0.3662 -1.471,-0.6335 z M 1558,1599.1667 c 0,-0.4584 0.6552,-0.8334 1.456,-0.8334 0.8008,0 1.2243,0.375 0.941,0.8334 -0.2833,0.4583 -0.9385,0.8333 -1.456,0.8333 -0.5176,0 -0.941,-0.375 -0.941,-0.8333 z M 452,1595.441 c 0,-0.8575 0.45734,-1.2764 1.01631,-0.9309 0.55897,0.3454 0.75742,1.047 0.44098,1.559 -0.85723,1.387 -1.45729,1.1284 -1.45729,-0.6281 z m 82.46896,0.5088 c -0.91846,-1.4861 -0.188,-2.0122 1.41676,-1.0204 0.85973,0.5313 0.96201,1.0467 0.29014,1.4619 -0.57071,0.3527 -1.33882,0.154 -1.7069,-0.4415 z m -127.8724,-36.7936 c -0.34605,-0.5599 -0.1419,-1.3192 0.45366,-1.6872 1.53748,-0.9503 2.52947,0.3513 1.24598,1.6348 -0.71818,0.7182 -1.27752,0.7354 -1.69964,0.052 z M 410.5,1555 c -0.33992,-0.55 -0.14148,-1 0.44098,-1 0.58246,0 1.05902,0.45 1.05902,1 0,0.55 -0.19844,1 -0.44098,1 -0.24254,0 -0.7191,-0.45 -1.05902,-1 z m 41.66004,-44.25 c 0.13872,-3.6841 0.21374,-3.8173 0.56336,-1 0.22182,1.7875 0.85136,3.25 1.39898,3.25 0.54761,0 0.71754,0.45 0.37762,1 -1.39614,2.259 -2.49019,0.7395 -2.33996,-3.25 z m -44.82671,-34.206 c 0,-0.8008 0.38234,-1.2197 0.84965,-0.9309 0.4673,0.2888 0.59075,0.944 0.27431,1.456 -0.80862,1.3084 -1.12396,1.1611 -1.12396,-0.5251 z M 473.5,1476 c 0.33992,-0.55 0.81648,-1 1.05902,-1 0.24254,0 0.44098,0.45 0.44098,1 0,0.55 -0.47656,1 -1.05902,1 -0.58246,0 -0.7809,-0.45 -0.44098,-1 z m -59.6875,-2.6831 c 0.72187,-0.2889 1.58438,-0.2534 1.91667,0.079 0.33229,0.3323 -0.25834,0.5687 -1.3125,0.5253 -1.16495,-0.048 -1.4019,-0.285 -0.60417,-0.6042 z m 1509.2664,-31.9002 c 0.048,-1.165 0.285,-1.4019 0.6042,-0.6042 0.2889,0.7219 0.2534,1.5844 -0.079,1.9167 -0.3323,0.3323 -0.5687,-0.2584 -0.5253,-1.3125 z M 1721,1440 c 0,-0.55 0.45,-1 1,-1 0.55,0 1,0.45 1,1 0,0.55 -0.45,1 -1,1 -0.55,0 -1,-0.45 -1,-1 z M 38.25,1437.5042 c -1.578511,-1.7929 -1.569849,-2.1709 0.04975,-2.1709 0.714863,0 1.361896,0.825 1.437851,1.8334 0.163135,2.1656 0.128826,2.1734 -1.487601,0.3375 z m 1884.4605,-0.5032 c -0.2875,-1.0995 -0.115,-2.251 0.3834,-2.559 0.4983,-0.308 0.9061,0.5915 0.9061,1.999 0,3.064 -0.5699,3.3115 -1.2895,0.56 z m -1556.69519,0.249 c 0.008,-0.4125 0.4385,-1.4193 0.95574,-2.2374 0.73909,-1.169 0.90434,-1.0084 0.77188,0.75 -0.14936,1.9829 -1.76615,3.3748 -1.72762,1.4874 z m 1273.60029,-0.8093 c -0.7903,-2.0596 0.034,-3.191 1.3594,-1.8657 0.518,0.518 0.5731,1.5382 0.1225,2.2672 -0.6437,1.0416 -0.9611,0.9556 -1.4819,-0.4015 z m 81.6677,-0.3305 c -0.1049,-1.3918 0.4767,-1.853 2.2065,-1.75 2.2864,0.1361 2.2989,0.1864 0.4714,1.8898 -2.3474,2.1879 -2.5032,2.1798 -2.6779,-0.1398 z M 360.5,1435 c -0.33992,-0.55 -0.14148,-1 0.44098,-1 0.58246,0 1.05902,0.45 1.05902,1 0,0.55 -0.19844,1 -0.44098,1 -0.24254,0 -0.7191,-0.45 -1.05902,-1 z m 1366.5,0 c 0,-0.55 0.4766,-1 1.059,-1 0.5825,0 0.7809,0.45 0.441,1 -0.3399,0.55 -0.8165,1 -1.059,1 -0.2426,0 -0.441,-0.45 -0.441,-1 z m -1357,-3.7495 c 0,-1.011 0.46919,-1.0698 2,-0.2505 1.1,0.5887 2,1.1831 2,1.3209 0,0.1378 -0.9,0.2505 -2,0.2505 -1.1,0 -2,-0.5944 -2,-1.3209 z m 1348.1662,0.8734 c -1.0977,-0.6959 -1.083,-0.9419 0.083,-1.3894 0.8084,-0.3102 1.4172,0.06 1.4172,0.8608 0,0.7726 -0.037,1.3978 -0.083,1.3894 -0.046,-0.01 -0.6835,-0.3958 -1.4171,-0.8608 z M 1636.1579,1424 c 0,-1.375 0.227,-1.9375 0.5044,-1.25 0.2774,0.6875 0.2774,1.8125 0,2.5 -0.2774,0.6875 -0.5044,0.125 -0.5044,-1.25 z m -0.079,-20.5833 c 0.048,-1.165 0.285,-1.4019 0.6042,-0.6042 0.2889,0.7219 0.2534,1.5844 -0.079,1.9167 -0.3323,0.3323 -0.5687,-0.2584 -0.5253,-1.3125 z m 245.2573,-7.25 c -0.8723,-1.3967 -0.8582,-1.8334 0.059,-1.8334 0.6622,0 1.2662,0.825 1.3422,1.8334 0.076,1.0083 0.049,1.8333 -0.059,1.8333 -0.1085,0 -0.7125,-0.825 -1.3422,-1.8333 z M 390.5,1395 c -0.33992,-0.55 0.11008,-1 1,-1 0.88992,0 1.33992,0.45 1,1 -0.33992,0.55 -0.78992,1 -1,1 -0.21008,0 -0.66008,-0.45 -1,-1 z m 1238.1028,0.2695 c -0.3315,-0.3316 -0.5959,-1.0903 -0.5875,-1.6862 0.01,-0.5958 0.4515,-0.4083 0.9847,0.4167 0.5332,0.825 0.9763,1.0127 0.9847,0.4171 0.01,-0.5956 1.0278,-0.9706 2.2653,-0.8333 1.2375,0.1372 2.8125,0.287 3.5,0.3329 0.6875,0.046 1.25,0.5557 1.25,1.133 0,0.6937 -0.5756,0.7276 -1.6974,0.1 -0.9698,-0.5428 -2.6402,-0.5914 -3.8972,-0.1136 -1.2098,0.46 -2.471,0.5651 -2.8026,0.2336 z M 1680,1394.5 c 0,-0.8667 0.5955,-1.2087 1.5,-0.8616 0.825,0.3166 1.5,0.7043 1.5,0.8616 0,0.1573 -0.675,0.545 -1.5,0.8616 -0.9045,0.3471 -1.5,0.01 -1.5,-0.8616 z m 180.5,0.5 c -0.3399,-0.55 -0.1415,-1 0.441,-1 0.5824,0 1.059,0.45 1.059,1 0,0.55 -0.1984,1 -0.441,1 -0.2425,0 -0.7191,-0.45 -1.059,-1 z m -1536,-1 c 0.33992,-0.55 0.81648,-1 1.05902,-1 0.24254,0 0.44098,0.45 0.44098,1 0,0.55 -0.47656,1 -1.05902,1 -0.58246,0 -0.7809,-0.45 -0.44098,-1 z m 1528.3125,0.3169 c 0.7219,-0.2889 1.5844,-0.2534 1.9167,0.079 0.3323,0.3323 -0.2584,0.5687 -1.3125,0.5253 -1.165,-0.048 -1.4019,-0.285 -0.6042,-0.6042 z m -1524.73355,-4.9002 c 0.048,-1.165 0.28494,-1.4019 0.60416,-0.6042 0.28887,0.7219 0.25335,1.5844 -0.0789,1.9167 -0.33229,0.3323 -0.56864,-0.2584 -0.52522,-1.3125 z M 38.333333,1367.544 c 0,-0.8008 0.382341,-1.2197 0.849646,-0.9309 0.467304,0.2888 0.590747,0.944 0.274316,1.456 -0.808625,1.3084 -1.123962,1.1611 -1.123962,-0.5251 z M 1721.4286,1355 c 0,-1.2952 0.3381,-1.6333 0.9857,-0.9857 0.6476,0.6476 0.6476,1.3238 0,1.9714 -0.6476,0.6476 -0.9857,0.3095 -0.9857,-0.9857 z M 37.70233,1354.6667 c -0.281407,-0.7334 0.04545,-1.3334 0.726344,-1.3334 0.680896,0 1.237993,0.6 1.237993,1.3334 0,0.7333 -0.326855,1.3333 -0.726345,1.3333 -0.399489,0 -0.956586,-0.6 -1.237992,-1.3333 z m 129.56142,-1.3843 c 1.52006,-0.2298 3.77006,-0.2237 5,0.014 1.22994,0.2373 -0.0137,0.4254 -2.76375,0.4179 -2.75,-0.01 -3.75631,-0.2017 -2.23625,-0.4316 z m 14.48625,0.055 c 0.6875,-0.2774 1.8125,-0.2774 2.5,0 0.6875,0.2774 0.125,0.5044 -1.25,0.5044 -1.375,0 -1.9375,-0.227 -1.25,-0.5044 z m 1640.0625,-0.021 c 0.7219,-0.2889 1.5844,-0.2534 1.9167,0.079 0.3323,0.3323 -0.2584,0.5687 -1.3125,0.5253 -1.165,-0.048 -1.4019,-0.285 -0.6042,-0.6042 z m 95.9375,0.021 c 0.6875,-0.2774 1.8125,-0.2774 2.5,0 0.6875,0.2774 0.125,0.5044 -1.25,0.5044 -1.375,0 -1.9375,-0.227 -1.25,-0.5044 z m -195.0167,-80.4618 c 0.6784,-0.6834 1.4853,-0.9907 1.7932,-0.6828 0.3078,0.3079 -0.2472,0.8671 -1.2334,1.2426 -1.4252,0.5427 -1.54,0.4278 -0.5598,-0.5598 z m -1472.22622,-0.8644 c -0.35034,-0.5669 0.0511,-0.7346 0.94098,-0.3931 1.73242,0.6648 2.04939,1.3816 0.61096,1.3816 -0.51754,0 -1.21592,-0.4448 -1.55194,-0.9885 z M 283,1272.1667 c 0,-0.4584 0.65521,-0.8334 1.45601,-0.8334 0.80081,0 1.22425,0.375 0.94098,0.8334 -0.28326,0.4583 -0.93847,0.8333 -1.45601,0.8333 -0.51754,0 -0.94098,-0.375 -0.94098,-0.8333 z m 1434.5643,-25.4598 c 0.3755,-0.9862 0.9347,-1.5412 1.2426,-1.2334 0.3079,0.3079 6e-4,1.1148 -0.6828,1.7932 -0.9876,0.9802 -1.1025,0.8654 -0.5598,-0.5598 z M 1717,1232 c 0,-0.55 0.4766,-1 1.059,-1 0.5825,0 0.7809,0.45 0.441,1 -0.3399,0.55 -0.8165,1 -1.059,1 -0.2426,0 -0.441,-0.45 -0.441,-1 z m 164,0 c 0,-0.55 0.4766,-1 1.059,-1 0.5825,0 0.7809,0.45 0.441,1 -0.3399,0.55 -0.8165,1 -1.059,1 -0.2426,0 -0.441,-0.45 -0.441,-1 z M 202.27172,1194.9571 c -0.0811,-1.0764 0.23479,-1.9571 0.70195,-1.9571 0.46715,0 0.7522,0.662 0.63346,1.4711 -0.34207,2.3306 -1.17366,2.6333 -1.33541,0.486 z m -36.81284,-4.0236 c -0.36253,-0.5866 -0.44468,-1.281 -0.18255,-1.5432 0.26212,-0.2621 0.74306,0.2179 1.06875,1.0666 0.67618,1.7621 0.0999,2.072 -0.8862,0.4766 z M 130.75,1104.2943 c 1.2375,-0.2384 3.2625,-0.2384 4.5,0 1.2375,0.2383 0.225,0.4333 -2.25,0.4333 -2.475,0 -3.4875,-0.195 -2.25,-0.4333 z m 9.5,0.016 c 0.9625,-0.2516 2.5375,-0.2516 3.5,0 0.9625,0.2515 0.175,0.4573 -1.75,0.4573 -1.925,0 -2.7125,-0.2058 -1.75,-0.4573 z m 1802.5117,-0.018 c 1.2439,-0.2392 3.0439,-0.2301 4,0.02 0.956,0.2503 -0.062,0.446 -2.2617,0.4349 -2.2,-0.011 -2.9823,-0.2159 -1.7383,-0.4551 z m -145.0117,-37.955 c 0.6875,-0.2774 1.8125,-0.2774 2.5,0 0.6875,0.2774 0.125,0.5044 -1.25,0.5044 -1.375,0 -1.9375,-0.227 -1.25,-0.5044 z m -35.147,-81.17103 c -0.2833,-0.45834 0.1402,-0.83334 0.941,-0.83334 0.8008,0 1.456,0.375 1.456,0.83334 0,0.45833 -0.4234,0.83333 -0.941,0.83333 -0.5175,0 -1.1727,-0.375 -1.456,-0.83333 z M 247.33333,980.34921 c 0,-0.9845 0.33697,-1.0378 1.33334,-0.21089 0.73333,0.60861 1.33333,1.20147 1.33333,1.31746 0,0.11599 -0.6,0.21089 -1.33333,0.21089 -0.73334,0 -1.33334,-0.59286 -1.33334,-1.31746 z m 40.13968,-77.39288 C 287.14793,902.43035 287.80852,902 288.94098,902 c 2.41457,0 2.65816,0.55611 0.59105,1.34934 -0.80739,0.30982 -1.73395,0.13297 -2.05902,-0.39301 z M 370.8125,656.31689 c 0.72187,-0.28887 1.58438,-0.25335 1.91667,0.0789 0.33229,0.33229 -0.25834,0.56864 -1.3125,0.52522 -1.16495,-0.048 -1.4019,-0.28494 -0.60417,-0.60416 z M 328,615.96862 C 328,615.43588 328.675,615 329.5,615 c 0.825,0 1.5,0.17686 1.5,0.39301 0,0.21616 -0.675,0.65203 -1.5,0.96862 -0.825,0.31658 -1.5,0.13972 -1.5,-0.39301 z m 83,0 C 411,615.43588 411.675,615 412.5,615 c 0.825,0 1.5,0.17686 1.5,0.39301 0,0.21616 -0.675,0.65203 -1.5,0.96862 -0.825,0.31658 -1.5,0.13972 -1.5,-0.39301 z M 1633,575.2128 c 0,-1.13474 3.852,-1.26132 4.5393,-0.14917 0.3183,0.515 -0.5728,0.93637 -1.9803,0.93637 -1.4074,0 -2.559,-0.35424 -2.559,-0.7872 z M 367.15789,571 c 0,-1.375 0.22698,-1.9375 0.50439,-1.25 0.27741,0.6875 0.27741,1.8125 0,2.5 -0.27741,0.6875 -0.50439,0.125 -0.50439,-1.25 z M 492,568.24055 c 0,-0.4177 1.0125,-1.38145 2.25,-2.14166 2.24201,-1.37729 2.24323,-1.37459 0.34501,0.75946 -2.03808,2.29128 -2.59501,2.58792 -2.59501,1.3822 z m -80.73027,-33.17127 c 0.08,-1.0619 0.48237,-1.72249 0.89418,-1.46798 0.41181,0.25451 0.49525,1.12334 0.18543,1.93073 -0.78123,2.03585 -1.2526,1.83381 -1.07961,-0.46275 z M 534.75,492.33772 c 0.6875,-0.27741 1.8125,-0.27741 2.5,0 0.6875,0.27741 0.125,0.50439 -1.25,0.50439 -1.375,0 -1.9375,-0.22698 -1.25,-0.50439 z M 634.5,443 c -0.33992,-0.55 -0.14148,-1 0.44098,-1 0.58246,0 1.05902,0.45 1.05902,1 0,0.55 -0.19844,1 -0.44098,1 -0.24254,0 -0.7191,-0.45 -1.05902,-1 z M 1379,423 c -1.2819,-0.82843 -1.2455,-0.9716 0.25,-0.98469 0.9625,-0.008 1.75,0.43469 1.75,0.98469 0,1.21961 -0.1128,1.21961 -2,0 z m -4,-2.05902 c 0,-0.58246 0.45,-0.7809 1,-0.44098 0.55,0.33992 1,0.81648 1,1.05902 0,0.24254 -0.45,0.44098 -1,0.44098 -0.55,0 -1,-0.47656 -1,-1.05902 z m -840.92105,-8.52431 c 0.048,-1.16495 0.28494,-1.4019 0.60416,-0.60417 0.28887,0.72187 0.25335,1.58438 -0.0789,1.91667 -0.33229,0.33229 -0.56864,-0.25834 -0.52522,-1.3125 z M 615,411 c 0,-1.25292 1.06124,-1.25292 3,0 1.21296,0.78387 1.06944,0.9723 -0.75,0.98469 C 616.0125,411.99311 615,411.55 615,411 Z m 743,0 c -1.2819,-0.82843 -1.2455,-0.9716 0.25,-0.98469 0.9625,-0.008 1.75,0.43469 1.75,0.98469 0,1.21961 -0.1128,1.21961 -2,0 z m 7,-0.059 c 0,-0.58246 0.45,-0.7809 1,-0.44098 0.55,0.33992 1,0.81648 1,1.05902 0,0.24254 -0.45,0.44098 -1,0.44098 -0.55,0 -1,-0.47656 -1,-1.05902 z M 1311.5,388 c -0.3399,-0.55 -0.168,-1 0.382,-1 0.55,0 1.2781,0.45 1.618,1 0.3399,0.55 0.168,1 -0.382,1 -0.55,0 -1.2781,-0.45 -1.618,-1 z m 120,-18 c -0.3399,-0.55 -0.1415,-1 0.441,-1 0.5824,0 1.059,0.45 1.059,1 0,0.55 -0.1984,1 -0.441,1 -0.2425,0 -0.7191,-0.45 -1.059,-1 z m -627.6875,-9.68311 c 0.72187,-0.28887 1.58438,-0.25335 1.91667,0.0789 0.33229,0.33229 -0.25834,0.56864 -1.3125,0.52522 -1.16495,-0.048 -1.4019,-0.28494 -0.60417,-0.60416 z M 898.92349,331.75 c -0.63327,-2.06919 -0.55931,-3.75 0.16499,-3.75 0.50134,0 0.91152,0.9 0.91152,2 0,1.60775 -0.74794,2.82361 -1.07651,1.75 z m 215.58361,-0.73855 c -0.3504,-0.56686 0.051,-0.7345 0.941,-0.39301 1.7324,0.66479 2.0493,1.38156 0.6109,1.38156 -0.5175,0 -1.2159,-0.44485 -1.5519,-0.98855 z m 5.2429,0.32627 c 0.6875,-0.27741 1.8125,-0.27741 2.5,0 0.6875,0.27741 0.125,0.50439 -1.25,0.50439 -1.375,0 -1.9375,-0.22698 -1.25,-0.50439 z M 1391.1579,330 c 0,-1.375 0.227,-1.9375 0.5044,-1.25 0.2774,0.6875 0.2774,1.8125 0,2.5 -0.2774,0.6875 -0.5044,0.125 -0.5044,-1.25 z M 697.5,329 c -0.33992,-0.55 -0.14148,-1 0.44098,-1 0.58246,0 1.05902,0.45 1.05902,1 0,0.55 -0.19844,1 -0.44098,1 -0.24254,0 -0.7191,-0.45 -1.05902,-1 z m 492,0 c 0.3399,-0.55 0.8165,-1 1.059,-1 0.2426,0 0.441,0.45 0.441,1 0,0.55 -0.4766,1 -1.059,1 -0.5825,0 -0.7809,-0.45 -0.441,-1 z M 738.07895,297.41667 c 0.048,-1.16495 0.28494,-1.4019 0.60416,-0.60417 0.28887,0.72187 0.25335,1.58438 -0.0789,1.91667 -0.33229,0.33229 -0.56864,-0.25834 -0.52522,-1.3125 z M 1431,287.94098 c 0,-0.58246 0.45,-0.7809 1,-0.44098 0.55,0.33992 1,0.81648 1,1.05902 0,0.24254 -0.45,0.44098 -1,0.44098 -0.55,0 -1,-0.47656 -1,-1.05902 z m -601.73097,-0.63397 c 0.97297,-0.25354 2.32297,-0.23687 3,0.0371 0.67703,0.27393 -0.11903,0.48137 -1.76903,0.46099 -1.65,-0.0204 -2.20394,-0.2445 -1.23097,-0.49804 z m 17.54347,0.01 c 0.72187,-0.28887 1.58438,-0.25335 1.91667,0.0789 0.33229,0.33229 -0.25834,0.56864 -1.3125,0.52522 -1.16495,-0.048 -1.4019,-0.28494 -0.60417,-0.60416 z m 329,0 c 0.7219,-0.28887 1.5844,-0.25335 1.9167,0.0789 0.3323,0.33229 -0.2584,0.56864 -1.3125,0.52522 -1.165,-0.048 -1.4019,-0.28494 -0.6042,-0.60416 z m 576,0 c 0.7219,-0.28887 1.5844,-0.25335 1.9167,0.0789 0.3323,0.33229 -0.2584,0.56864 -1.3125,0.52522 -1.165,-0.048 -1.4019,-0.28494 -0.6042,-0.60416 z m -638,-2 c 0.7219,-0.28887 1.5844,-0.25335 1.9167,0.0789 0.3323,0.33229 -0.2584,0.56864 -1.3125,0.52522 -1.165,-0.048 -1.4019,-0.28494 -0.6042,-0.60416 z M 69.761659,247.29274 c 1.243913,-0.23919 3.043913,-0.23011 4,0.0202 0.956088,0.25029 -0.06166,0.446 -2.261659,0.4349 -2.2,-0.0111 -2.982253,-0.21589 -1.738341,-0.45508 z m 62.988341,0.045 c 0.6875,-0.27741 1.8125,-0.27741 2.5,0 0.6875,0.27741 0.125,0.50439 -1.25,0.50439 -1.375,0 -1.9375,-0.22698 -1.25,-0.50439 z m 5.0625,-0.0208 c 0.72187,-0.28887 1.58437,-0.25335 1.91667,0.0789 0.33229,0.33229 -0.25834,0.56864 -1.3125,0.52522 -1.16495,-0.048 -1.4019,-0.28494 -0.60417,-0.60416 z m 4.94916,-0.0241 c 1.24391,-0.23919 3.04391,-0.23011 4,0.0202 0.95609,0.25029 -0.0617,0.446 -2.26166,0.4349 -2.2,-0.0111 -2.98225,-0.21589 -1.73834,-0.45508 z M 380.25,247.26496 c 2.6125,-0.206 6.8875,-0.206 9.5,0 2.6125,0.206 0.475,0.37454 -4.75,0.37454 -5.225,0 -7.3625,-0.16854 -4.75,-0.37454 z m 666.5,0.0728 c 0.6875,-0.27741 1.8125,-0.27741 2.5,0 0.6875,0.27741 0.125,0.50439 -1.25,0.50439 -1.375,0 -1.9375,-0.22698 -1.25,-0.50439 z M 308.26903,121.30701 c 0.97297,-0.25354 2.32297,-0.23687 3,0.037 0.67703,0.27393 -0.11903,0.48137 -1.76903,0.46099 -1.65,-0.0204 -2.20394,-0.2445 -1.23097,-0.49804 z m 977.54347,0.01 c 0.7219,-0.28887 1.5844,-0.25335 1.9167,0.0789 0.3323,0.3323 -0.2584,0.56864 -1.3125,0.52522 -1.165,-0.048 -1.4019,-0.28494 -0.6042,-0.60416 z"
       id="path1"
       clip-path="url(#clipPath275)" />
  </g>
</svg>
