<?xml version="1.0" encoding="UTF-8" standalone="no"?>
<!-- Created with Inkscape (http://www.inkscape.org/) -->

<svg
   version="1.1"
   id="svg1"
   width="706.71765"
   height="701.46167"
   viewBox="0 0 706.71765 701.46167"
   sodipodi:docname="logo_barlovento_web.svg"
   inkscape:version="1.4.3 (0d15f75042, 2025-12-25)"
   inkscape:export-filename="logo_base_barlovento_web.png"
   inkscape:export-xdpi="96"
   inkscape:export-ydpi="96"
   xml:space="preserve"
   xmlns:inkscape="http://www.inkscape.org/namespaces/inkscape"
   xmlns:sodipodi="http://sodipodi.sourceforge.net/DTD/sodipodi-0.dtd"
   xmlns="http://www.w3.org/2000/svg"
   xmlns:svg="http://www.w3.org/2000/svg"><defs
     id="defs1"><clipPath
       clipPathUnits="userSpaceOnUse"
       id="clipPath42"><rect
         style="fill:#000000"
         id="rect43"
         width="877.73383"
         height="764.19"
         x="136.1741"
         y="-109.77232" /></clipPath><clipPath
       clipPathUnits="userSpaceOnUse"
       id="clipPath44"><rect
         style="opacity:0.239783;fill:#000000;stroke-width:0.999148"
         id="rect45"
         width="779.71149"
         height="717.67749"
         x="193.562"
         y="-70.567566" /></clipPath></defs><sodipodi:namedview
     id="namedview1"
     pagecolor="#ffffff"
     bordercolor="#000000"
     borderopacity="0.25"
     inkscape:showpageshadow="2"
     inkscape:pageopacity="0.0"
     inkscape:pagecheckerboard="0"
     inkscape:deskcolor="#d1d1d1"
     inkscape:zoom="0.74001734"
     inkscape:cx="52.701468"
     inkscape:cy="418.23344"
     inkscape:window-width="1920"
     inkscape:window-height="995"
     inkscape:window-x="0"
     inkscape:window-y="0"
     inkscape:window-maximized="1"
     inkscape:current-layer="g1" /><g
     inkscape:groupmode="layer"
     inkscape:label="Image"
     id="g1"
     transform="translate(-225.99367,54.35173)"><path
       style="fill:#ffffff"
       d="m 527.22813,800.49963 c -17.28368,-4.36241 -28.73118,-22.95224 -25.70011,-41.73491 2.29148,-14.19961 8.18613,-23.15196 18.67394,-28.36058 4.24435,-2.10789 6.16246,-2.37973 16.79171,-2.37973 11.8871,0 12.06115,0.0337 18.5,3.57879 12.13127,6.67928 17.45224,16.71655 17.45224,32.92121 0,16.63017 -5.61227,26.99966 -17.88228,33.04017 -5.53401,2.72439 -7.83888,3.25892 -15.29302,3.54667 -4.82732,0.18634 -10.47143,-0.0889 -12.54248,-0.61162 z m 19.29937,-13.99248 c 7.23827,-3.69269 10.94968,-11.15956 10.96059,-22.05124 0.0152,-15.22203 -8.05371,-24.93406 -20.71231,-24.92995 -16.40287,0.005 -25.27466,20.61053 -16.66128,38.6967 4.86261,10.21039 15.8703,13.66297 26.413,8.28449 z m 179.34627,13.57094 c -1.94397,-1.36161 -2.10515,-2.75602 -2.75193,-23.8078 -0.37786,-12.29881 -0.37675,-27.46999 0.002,-33.71374 0.77789,-12.80786 1.92154,-15.05883 7.61936,-14.9967 4.00724,0.0437 6.77091,1.56335 9.9379,5.46456 2.17726,2.68203 20.328,28.73545 27.15784,38.98214 l 2.65426,3.98213 v -22.15955 -22.15956 l 2.63485,-2.07258 c 1.44918,-1.13992 3.63849,-2.07258 4.86515,-2.07258 1.22665,0 3.41596,0.93266 4.86514,2.07258 l 2.63486,2.07258 v 30.86232 c 0,30.19248 -0.4632,35.39507 -3.31257,37.20686 -1.43511,0.91252 -7.90366,1.02365 -10.11826,0.17383 -1.7724,-0.68013 -8.30754,-9.54755 -23.37318,-31.71466 -11.899,-17.50781 -10.98863,-18.35795 -11.42789,10.67174 -0.27866,18.41644 -0.33867,18.8886 -2.63741,20.75 -2.80642,2.27251 -5.92722,2.436 -8.75059,0.45843 z m 95.50239,-0.0158 c -1.62091,-0.90592 -2.85832,-2.66698 -3.25,-4.62538 -0.34787,-1.73937 -0.63249,-14.80624 -0.63249,-29.03749 v -25.875 l -7.75,-0.11831 c -11.09619,-0.1694 -13.40509,-0.84145 -14.53371,-4.2303 -0.67003,-2.01186 -0.57119,-3.554 0.33648,-5.25 l 1.28518,-2.40139 h 28.85246 28.85246 l 1.10548,2.42626 c 1.56371,3.43196 0.28107,7.45997 -2.74138,8.60911 -1.39545,0.53055 -6.33288,0.96463 -10.97207,0.96463 h -8.4349 l -0.0436,24.75 c -0.0419,23.82214 -0.69562,32.38917 -2.61813,34.31169 -1.69662,1.69661 -6.81128,1.95418 -9.45582,0.47618 z m 65.04685,0.1593 c -10.32837,-2.93065 -17.17429,-8.79165 -21.83918,-18.69717 -2.31789,-4.92185 -2.59016,-6.70886 -2.59016,-17 0,-10.5122 0.24283,-12.02546 2.82707,-17.61743 5.8672,-12.69591 15.18359,-18.51857 30.67293,-19.17033 11.79942,-0.49649 18.98723,1.82491 26.02042,8.40364 18.99901,17.77135 12.69401,55.87844 -10.41648,62.95659 -7.06154,2.16278 -19.08474,2.71081 -24.6746,1.1247 z m 21.57066,-14.45724 c 2.43112,-1.67336 4.98054,-4.71171 6.5,-7.74658 2.14838,-4.29105 2.49666,-6.3295 2.47631,-14.49335 -0.0267,-10.72086 -0.96194,-13.23385 -7.14389,-19.19641 -9.391,-9.05772 -24.021,-6.27124 -29.87295,5.68971 -3.26978,6.68319 -4.24372,16.06911 -2.44533,23.56566 0.96625,4.02779 2.30665,6.29932 5.6138,9.5135 7.19344,6.99122 17.05393,8.04874 24.87206,2.66747 z m -680.51226,12.23717 c -1.22649,-2.29172 -1.48774,-8.3003 -1.48774,-34.21684 v -31.43697 l 2.43071,-1.96827 c 2.26565,-1.83461 3.77094,-1.94744 22.16733,-1.66164 l 19.73663,0.30662 4.23843,3 c 6.57772,4.65578 8.1995,7.43814 8.14084,13.96658 -0.0521,5.80194 -1.2993,8.69212 -5.87998,13.62632 l -2.40713,2.59291 3.91543,2.59111 c 9.04844,5.98797 10.66451,19.21363 3.40234,27.84423 -4.87983,5.79936 -8.45977,6.63634 -31.75686,7.42475 l -21.01225,0.71108 z m 34.12577,-9.47369 c 6.50808,-1.2041 9.88649,-4.4516 9.88649,-9.50341 0,-4.49671 -3.44782,-8.3617 -8.5,-9.52849 -2.2,-0.50809 -8.1625,-0.93453 -13.25,-0.94765 l -9.25,-0.0239 v 10.5 10.5 h 7.86351 c 4.32493,0 10.28743,-0.44846 13.25,-0.99659 z m 4.43194,-34.45795 c 3.17779,-3.1778 3.19473,-7.57264 0.0433,-11.2397 -2.34586,-2.72969 -2.7254,-2.81487 -14,-3.14181 l -11.58876,-0.33606 v 8.58606 8.58605 h 11.54545 c 10.9248,0 11.6774,-0.13195 14,-2.45454 z m 27.20455,45.40008 c -1.04348,-0.62306 -1.75,-2.25203 -1.75,-4.03482 0,-2.60267 18.6869,-52.23542 22.74484,-60.41072 2.89939,-5.84122 5.20259,-7.5 10.41369,-7.5 7.01539,0 9.5526,2.86288 16.39547,18.5 10.29401,23.52354 17.71947,42.92597 18.19347,47.53881 0.58379,5.68125 -0.96377,7.20199 -6.89172,6.7723 -4.71046,-0.34144 -4.84965,-0.50577 -9.36876,-11.06111 l -2.46177,-5.75 H 325.45005 310.3812 l -1.9639,4.75 c -4.28029,10.3525 -5.378,11.72936 -9.56326,11.99523 -2.12321,0.13488 -4.64787,-0.22498 -5.61037,-0.79969 z m 41.85,-28.21221 c 0.58098,-0.58098 -7.21856,-22.32813 -9.50403,-26.49971 -0.56329,-1.02814 -11.09597,24.91597 -11.09597,27.3316 0,0.8745 19.68869,0.0794 20.6,-0.83189 z m 37.43518,27.33241 c -0.6525,-1.2192 -1.03518,-13.9158 -1.03518,-34.34501 0,-30.12902 0.12874,-32.52727 1.82874,-34.06574 2.64334,-2.3922 40.65992,-2.466 45.66979,-0.0887 14.47538,6.86902 16.54024,25.92053 3.72907,34.4063 -2.51377,1.66506 -5.44571,3.02737 -6.51541,3.02737 -1.66144,0 -1.43854,0.5605 1.52928,3.84552 1.9108,2.11503 5.27313,6.50253 7.47183,9.75 9.88819,14.6048 9.77113,19.40448 -0.47325,19.40448 -4.69595,0 -5.58503,-0.88964 -14.49079,-14.5 -7.73377,-11.81923 -10.25366,-14.36482 -15.40261,-15.55965 -8.59102,-1.99358 -8.34367,-2.28345 -8.37051,9.80965 -0.0258,11.64185 -1.07023,18.0599 -3.15383,19.38098 -0.72727,0.46112 -3.21898,0.84529 -5.53713,0.85371 -3.15368,0.0115 -4.47544,-0.47166 -5.25,-1.91895 z m 41.21304,-43.12395 c 1.06438,-1.31446 1.75178,-3.85721 1.75178,-6.47999 0,-7.28722 -2.72005,-8.56217 -21.25,-9.9604 l -7.75,-0.5848 v 9.99789 9.99789 l 7.25,0.29381 c 10.92943,0.44292 17.92025,-0.69822 19.99822,-3.2644 z m 39.25178,44.1401 -6,-0.58189 -0.67588,-4.5 c -0.37173,-2.475 -0.70923,-17.86198 -0.75,-34.1933 -0.0739,-29.59031 -0.0664,-29.69869 2.14838,-31.25 1.22238,-0.85618 3.59725,-1.5567 5.2775,-1.5567 1.68024,0 4.05511,0.70052 5.27749,1.5567 2.14078,1.49946 2.22265,2.1522 2.22656,17.75 0.002,8.90632 0.29749,21.94681 0.65613,28.97888 l 0.65207,12.78557 15.09387,-0.21185 c 16.7746,-0.23544 19.29316,0.21955 20.62641,3.72627 1.52777,4.01835 -0.29878,7.03198 -4.70314,7.7597 -4.52183,0.74713 -31.23101,0.57051 -39.82939,-0.26338 z m 150.73507,-1.33189 c -3.72247,-3.96278 -24.19275,-58.0041 -24.43751,-64.51477 -0.15075,-4.01001 2.05157,-6.23523 6.17106,-6.23523 5.94991,0 7.05865,2.11632 20.03918,38.25 2.9143,8.1125 5.6271,14.75 6.02845,14.75 0.72015,0 16.20305,-40.90282 17.51295,-46.26582 0.82601,-3.38182 4.87377,-6.73418 8.13111,-6.73418 1.32583,0 3.50112,1.09053 4.83399,2.4234 2.39919,2.39919 2.40773,2.47658 0.85497,7.75 -1.9329,6.56443 -19.03026,52.19764 -21.10384,56.3266 -2.8472,5.66942 -4.15647,6.5 -10.24611,6.5 -4.58782,0 -6.0743,-0.42966 -7.78425,-2.25 z m 58.61683,1.51405 c -8.19798,-0.5193 -8.09608,-0.0321 -7.69047,-36.77414 l 0.33857,-30.66827 2.36078,-1.91082 c 2.17079,-1.75703 4.20822,-1.91082 25.31574,-1.91082 13.91109,0 23.71702,0.40785 24.88922,1.03518 2.38141,1.2745 2.59276,6.16346 0.36283,8.39339 -1.31171,1.31171 -4.53464,1.57143 -19.5,1.57143 h -17.92857 v 8.5 8.5 l 10.25,0.12421 c 5.6375,0.0683 13.38903,0.40582 17.22564,0.75 6.02345,0.54037 7.13655,0.94996 8.15445,3.00064 0.8326,1.67736 0.88445,3.21928 0.17654,5.25 l -1.00228,2.87515 h -17.40218 -17.40217 v 10 10 h 18.97694 18.97695 l 1.61707,2.46796 c 2.31148,3.52776 0.74967,7.81864 -3.15346,8.66373 -3.04395,0.65906 -34.7636,0.75327 -44.5656,0.13236 z M 480.90701,706.55368 c -2.28279,-0.92329 -8.88864,-9.54253 -18.03108,-23.52674 l -5.88226,-8.99748 -0.5,14.99748 c -0.275,8.24861 -0.86406,15.55998 -1.30902,16.24748 -1.02877,1.58954 -4.92146,1.61953 -6.49098,0.05 -0.85942,-0.85941 -1.2,-7.34334 -1.2,-22.84501 0,-19.69935 0.16438,-21.79378 1.82874,-23.3 1.0058,-0.91024 2.95847,-1.65499 4.33926,-1.65499 2.71136,0 8.15478,6.8614 18.9839,23.92911 5.18079,8.16541 5.36786,8.33747 5.97978,5.5 0.34743,-1.61101 0.68493,-8.35161 0.75,-14.97911 0.12537,-12.76861 0.68891,-14.45 4.84307,-14.45 3.84921,0 4.41026,3.61558 4.07962,26.2904 -0.28163,19.3143 -0.44943,20.98009 -2.2455,22.29187 -2.19125,1.6004 -2.27566,1.60774 -5.14553,0.44699 z m 78.20881,-0.11009 c -5.27236,-0.85384 -9.59643,-4.14186 -12.38715,-9.41917 -2.12881,-4.02562 -3.16209,-35.678 -1.24029,-37.99362 1.72813,-2.08228 6.71537,-1.92745 7.84739,0.24362 0.50186,0.9625 1.12007,8.85791 1.3738,17.54536 0.50792,17.39089 1.38647,20.0721 7.21336,22.0144 3.72172,1.24057 10.17604,-0.70375 11.68293,-3.5194 0.64361,-1.20259 1.36745,-8.95842 1.65329,-17.71475 0.57599,-17.64481 1.1275,-20.07561 4.55478,-20.07561 4.9073,0 5.6836,2.42123 5.63618,17.57874 -0.0493,15.75028 -0.877,21.47288 -3.65648,25.27942 -3.79697,5.20001 -12.92688,7.64013 -22.67781,6.06101 z m 128.25701,0.14016 c -10.82101,-1.458 -18.41217,-11.41416 -18.34425,-24.05933 0.0426,-7.93548 1.70853,-13.06874 5.72626,-17.64468 5.16137,-5.87847 9.76528,-7.60596 19.13811,-7.18105 10.40946,0.47191 15.25863,3.38325 19.26109,11.56399 3.56975,7.29631 3.70107,18.81791 0.29469,25.85457 -2.58789,5.34587 -8.60265,10.10682 -13.82312,10.94162 -6.96436,1.11366 -7.66137,1.14352 -12.25278,0.52488 z m 12.68088,-9.69063 c 5.295,-3.46941 7.81439,-14.48128 4.99948,-21.852 -2.44819,-6.41051 -6.52857,-9.5167 -12.50139,-9.5167 -8.57517,0 -13.30632,5.91875 -13.24487,16.56959 0.0495,8.57817 2.97963,13.78043 9.2073,16.34691 2.9774,1.22701 8.41841,0.4972 11.53948,-1.5478 z m 26.5936,9.02637 c -2.28776,-1.60242 -2.29086,-1.63947 -1.9725,-23.58211 0.37871,-26.10258 -0.23762,-24.85944 12.25999,-24.72858 14.64463,0.15334 19.49192,1.15708 22.64845,4.68985 5.75275,6.43845 4.28966,15.22487 -3.35599,20.15393 l -3.7664,2.42816 2.41036,2.57184 c 4.18753,4.46807 8.62245,12.66284 8.62245,15.93244 0,2.77516 -0.32637,3.1394 -2.81291,3.1394 -3.16204,0 -6.05717,-2.71664 -11.1899,-10.5 -5.3841,-8.16455 -6.93493,-9.5 -11.03222,-9.5 h -3.68639 l -0.6306,5.25 c -0.34683,2.8875 -0.63451,7.14667 -0.63929,9.46482 -0.006,3.13787 -0.50292,4.47932 -1.94295,5.25 -2.43545,1.30341 -2.19855,1.33089 -4.9121,-0.56975 z m 22.70316,-28.495 c 4.134,-1.44112 5.14252,-5.08246 2.41986,-8.73712 -1.80374,-2.42119 -2.67804,-2.68946 -9.63026,-2.95501 l -7.6464,-0.29207 v 6.54207 6.54206 h 5.85077 c 3.21793,0 7.27064,-0.49497 9.00603,-1.09993 z m 22.29671,28.83638 c -3.28049,-1.57725 -2.59281,-4.80883 5.16495,-24.27152 7.7587,-19.46504 9.0445,-22.00142 12.20235,-24.07052 2.28868,-1.49961 2.6703,-1.49921 4.96632,0.005 3.01893,1.97808 4.42031,4.67733 12.89626,24.84005 7.02936,16.72154 8.05397,21.92071 4.6762,23.72844 -2.62715,1.40601 -6.58127,-2.09836 -8.42656,-7.46811 l -1.37458,-4 -8.37923,0.22096 c -11.32751,0.29871 -12.59296,0.69922 -13.3687,4.23114 -0.65458,2.98025 -4.0797,8.10545 -5.3331,7.98022 -0.37259,-0.0372 -1.73334,-0.57536 -3.02391,-1.19587 z m 25.39831,-22.98645 c -2.85995,-8.98683 -4.76934,-13.75 -5.51188,-13.75 -0.64391,0 -2.10495,3.59513 -6.80711,16.75 -0.33034,0.92415 1.39339,1.25 6.61235,1.25 h 7.05915 z m -444.02225,20.96832 c -7.63888,-4.32651 -10.94615,-12.21731 -10.37574,-24.75544 0.4176,-9.17939 3.33243,-14.41276 10.59151,-19.01634 6.28554,-3.98617 14.49441,-4.12634 22.02034,-0.37601 7.66759,3.82092 12.10117,12.72572 7.59228,15.24902 -2.6362,1.47529 -5.03917,0.26058 -7.83145,-3.95885 -5.61371,-8.48288 -16.411,-7.78612 -21.1429,1.36437 -2.11109,4.08239 -2.16208,15.36886 -0.0876,19.38053 1.96696,3.80369 3.68103,5.24064 7.58784,6.3611 5.38101,1.54325 9.65095,-0.42245 14.15164,-6.51481 4.42204,-5.98588 4.27306,-5.89229 7.03021,-4.41671 2.63221,1.40872 2.56268,7.27354 -0.13109,11.05659 -1.13594,1.59528 -3.98798,4.02725 -6.33786,5.40437 -5.89301,3.45354 -17.17018,3.56216 -23.06722,0.22218 z m 49.25383,-0.64072 c -2.79861,-1.77483 -5.72243,-4.81811 -7.44578,-7.75 -2.51962,-4.28658 -2.83628,-5.78018 -2.82563,-13.3276 0.0139,-9.81572 1.9211,-14.53904 8.04018,-19.91167 4.84531,-4.25423 7.74113,-5.28284 14.94783,-5.30955 7.418,-0.0275 12.16787,1.88909 17.23185,6.95308 9.39352,9.39351 8.79288,28.33231 -1.17615,37.08513 -5.08691,4.46631 -7.35813,5.18301 -16.42502,5.18301 -6.83547,0 -8.27719,-0.34123 -12.34728,-2.9224 z m 15.7166,-5.17634 c 5.64517,-1.53492 9.1952,-5.25282 10.40587,-10.89795 2.5912,-12.08236 -3.08561,-22.00331 -12.59039,-22.00331 -6.17151,0 -10.10701,2.32728 -12.37211,7.31632 -4.11611,9.06604 -1.13453,21.33974 6.05663,24.93213 4.1297,2.06302 3.49323,2.01413 8.5,0.65281 z m 88,6.23818 c -5.96951,-3.68733 -9.35427,-9.6747 -7.46496,-13.20491 1.79284,-3.34996 5.62641,-2.43108 8.43781,2.02247 1.37387,2.17636 3.37494,4.42636 4.44681,5 4.50701,2.41208 13.28868,0.11265 14.53214,-3.80515 1.41088,-4.44529 -1.22311,-6.4547 -13.13266,-10.01858 -11.50059,-3.44149 -16.3507,-10.33531 -12.96771,-18.43193 2.85968,-6.84418 12.45402,-10.27363 23.13571,-8.26973 4.26742,0.80057 10.05829,5.62112 10.93136,9.0997 1.67022,6.65468 -5.02013,8.95309 -8.56625,2.94285 -2.51593,-4.26419 -4.57861,-5.47416 -9.33197,-5.47416 -2.536,0 -4.36923,0.75804 -6.15718,2.54599 -4.01434,4.01434 -1.76744,6.27023 10.1081,10.14852 10.62554,3.47007 13.86242,5.75633 15.59884,11.01772 2.20877,6.69266 -0.51169,12.94195 -7.09629,16.30116 -5.34408,2.72634 -18.14782,2.79816 -22.47375,0.12605 z m 92.80518,0.84981 c -3.07018,-1.23653 -3.43732,-4.43199 -3.09825,-26.96597 l 0.29307,-19.47672 2.80276,-0.98488 c 5.71511,-2.00826 6.10497,-0.88852 7.0652,20.29255 l 0.86797,19.14577 9.13203,0.0147 c 9.63206,0.0155 13.87241,1.27935 14.45575,4.30842 0.78038,4.05218 -1.35615,4.68015 -15.69616,4.61345 -7.49515,-0.0349 -14.61522,-0.46117 -15.82237,-0.94736 z m 42.94482,0.34847 c -0.93932,-0.37902 -1.25,-5.29447 -1.25,-19.77645 v -19.27206 l -6.69486,-0.62517 c -6.98087,-0.65189 -10.01306,-2.37686 -8.96751,-5.10151 1.07744,-2.80777 5.47085,-3.56521 19.97747,-3.44421 18.06191,0.15065 20.08904,0.5596 20.50127,4.13594 0.38561,3.34544 -2.49455,4.74574 -9.76114,4.74574 h -4.81457 l -0.40999,19.06098 c -0.32908,15.29995 -0.69813,19.24324 -1.87033,19.98469 -1.55768,0.98527 -4.65796,1.12021 -6.71034,0.29205 z m -84.25,-59.36895 c -38.72401,-1.96106 -91.0521,-15.60367 -126.36749,-32.94564 -42.02272,-20.63567 -70.89864,-41.14659 -102.70384,-72.9518 -29.35373,-29.35373 -47.33731,-54.34308 -66.25911,-92.07133 -22.55509,-44.97268 -33.14039,-86.031 -35.62089,-138.1665 -1.91058,-40.15683 2.20958,-74.97144 13.55786,-114.56145 10.01869,-34.9516 24.49206,-64.69168 49.70409,-102.132677 9.92124,-14.733484 22.20226,-28.669056 43.3051,-49.139369 24.5764,-23.839759 40.73689,-36.200691 67.18893,-51.3918859 40.93225,-23.5070561 71.72281,-34.4158731 123.19535,-43.6470101 16.0359,-2.875897 19.84254,-3.182786 45.5,-3.668186 33.50745,-0.633911 48.26598,0.392902 74.31102,5.17013 51.53743,9.453093 74.85626,18.202336 120.22602,45.10889 39.40065,23.366567 78.43567,59.942113 106.64761,99.928061 33.20316,47.060207 56.02072,107.606227 61.36022,162.818327 1.28086,13.24455 1.25161,59.11363 -0.0477,74.87029 -4.83009,58.57207 -28.21626,118.67534 -65.49713,168.32987 -29.44869,39.22281 -65.23469,71.61962 -104.94186,95.00311 -49.75271,29.2993 -104.95079,46.50139 -157.05814,48.94608 -24.14568,1.13282 -32.29205,1.22061 -46.5,0.50109 z m 50,-17.01552 c 27.46168,-2.4833 73.94588,-12.04245 82.19383,-16.9026 1.81839,-1.07149 8.03117,-3.57274 13.80617,-5.55832 26.886,-9.24407 61.54371,-29.47183 92.44773,-53.95657 13.178,-10.44071 37.04985,-34.33383 47.49344,-47.53576 28.72421,-36.31079 51.59344,-80.09217 62.42089,-119.5 8.58495,-31.24597 11.07211,-50.8368 11.10859,-87.5 0.0326,-32.76398 -1.01359,-42.42602 -8.02276,-74.09406 -6.03143,-27.2505 -18.81598,-63.31938 -28.67698,-80.90594 C 861.28113,109.66846 836.70832,76.336532 817.72737,58.695462 800.2709,42.471253 772.92897,21.034389 754.79573,9.355238 737.58151,-1.732 711.54762,-13.428152 684.28558,-22.322597 c -26.95974,-8.795822 -47.56233,-12.428251 -80.04078,-14.11194 -19.6046,-1.016306 -22.75113,-0.563437 -22.75113,3.274488 0,5.462791 -6.13416,14.662416 -18.45238,27.6737084 C 556.279,1.656436 550.15935,8.917323 549.44208,10.648963 c -1.06571,2.572852 -1.07537,6.00284 -0.0529,18.761949 1.39753,17.438674 0.8935,20.626384 -3.43308,21.712287 -1.43455,0.360048 -4.48796,0.258494 -6.78537,-0.225676 -4.07398,-0.858575 -4.32802,-1.159508 -10.28978,-12.18938 -3.36197,-6.21999 -6.51197,-11.696171 -7,-12.169293 -0.49548,-0.48034 -7.51144,-0.464805 -15.88732,0.03518 -35.96509,2.146871 -49.33021,6.650906 -52.4675,17.681511 -1.57767,5.547015 -3.21866,24.196457 -2.50257,28.44094 0.79493,4.711757 5.81829,12.651284 8.67255,13.707144 4.60552,1.70369 13.02866,-1.44171 22.29752,-8.326413 8.61461,-6.398752 11.23427,-7.709295 14.7148,-7.361395 6.53569,0.653281 9.27065,9.179026 7.63751,23.808608 -0.52188,4.675 -1.03965,9.363015 -1.1506,10.417805 -0.17007,1.61693 0.87459,2.12012 6.65863,3.2073 11.73118,2.20501 13.7124,4.63404 16.15363,19.80488 2.91569,18.11933 5.2366,21.22361 15.53703,20.78112 10.1968,-0.43803 11.32275,-0.41587 16.11881,0.31717 4.38598,0.67037 5.13284,0.42516 12.28749,-4.03413 9.18322,-5.72365 17.90426,-9.43821 22.23461,-9.47041 1.75556,-0.0131 8.50556,1.61508 15,3.61809 21.28313,6.5641 24.69337,7.38989 34.80809,8.42873 12.21829,1.25489 15.29683,2.68347 27,12.52921 10.96381,9.22373 11.32187,9.41571 24.98327,13.39536 6.0339,1.75771 12.58677,4.02028 14.56194,5.02794 5.60227,2.85806 10.81377,9.4232 15.5067,19.53439 6.18864,13.33382 11.87224,19.15041 20.44809,20.92655 1.925,0.39869 8.675,3.13993 15,6.09165 7.87819,3.67656 14.6028,6.00519 21.35205,7.3939 10.97092,2.25735 15.78393,4.13689 23.91833,9.34041 4.53441,2.90062 6.08612,4.67466 8.62731,9.86339 6.13951,12.53601 4.8239,20.88134 -5.77737,36.64769 -7.77277,11.55976 -9.07799,14.62056 -15.20972,35.66725 -5.83584,20.03111 -11.16314,31.60634 -17.43087,37.87407 -4.65653,4.65653 -15.25474,10.63041 -18.88946,10.6474 -4.01673,0.0188 -12.18446,4.7223 -16.28008,9.37517 -2.74741,3.12123 -5.52773,8.19187 -8.37157,15.26778 -4.61228,11.47602 -13.60236,27.17751 -21.236,37.08937 -6.38111,8.28552 -11.09953,10.95115 -20.95262,11.837 -4.2625,0.38323 -7.75,0.92 -7.75,1.19282 0,0.27283 0.49825,2.15909 1.10724,4.1917 0.95429,3.18516 0.80635,4.28544 -1.07104,7.96543 -3.93571,7.71463 -9.59648,12.74809 -20.43456,18.17008 -5.5559,2.77946 -10.90899,5.78191 -11.89575,6.67212 -2.16819,1.95605 -15.17835,25.48207 -17.09318,30.90929 -0.75071,2.12774 -1.90102,7.90755 -2.55624,12.84404 -1.33033,10.02276 -3.117,14.69146 -9.60989,25.11145 -6.15399,9.87611 -6.02908,10.94243 2.5611,21.86398 7.3734,9.37453 9.22626,14.12081 7.38533,18.91821 -1.42815,3.72168 -18.35014,0.81532 -29.56466,-5.07774 -8.53461,-4.48482 -15.53709,-11.9424 -20.31546,-21.6358 -6.01464,-12.2013 -6.8958,-24.80739 -3.55905,-50.91642 1.07462,-8.40854 2.65717,-21.36325 3.51679,-28.78825 1.85458,-16.01908 5.12529,-37.21881 11.10821,-72 6.6092,-38.42198 6.76128,-39.58909 6.84094,-52.5 0.11639,-18.86382 -3.65077,-27.57676 -15.46807,-35.77561 -15.11825,-10.48905 -20.78622,-17.40434 -30.91997,-37.72439 -3.42861,-6.875 -9.21687,-17.6635 -12.86279,-23.97444 -6.05398,-10.4792 -6.66166,-12.05344 -7.00615,-18.15004 -0.47356,-8.38084 1.38263,-22.65775 3.75889,-28.91155 1.61832,-4.25907 5.61212,-10.5263 15.95895,-25.04341 3.37591,-4.73658 4.85878,-10.83834 3.72844,-15.34197 -0.84748,-3.37661 -4.80711,-5.28201 -15.92154,-7.66153 -16.25613,-3.48034 -20.05865,-5.82945 -32.12811,-19.84803 -15.3613,-17.84201 -34.81264,-28.18773 -64.8329,-34.4831 -18.77247,-3.93667 -31.28457,-11.21641 -42.25723,-24.585925 -2.48269,-3.025 -8.78953,-13.824999 -14.0152,-23.999999 -9.05972,-17.640368 -15.9824,-28.805035 -17.14176,-27.645674 -0.29493,0.294923 1.28801,4.789178 3.51763,9.987235 4.4902,10.468285 7.66732,20.494475 6.7766,21.385201 -0.31816,0.318152 -2.72229,-0.745803 -5.34252,-2.364346 -3.51346,-2.1703 -6.6016,-5.61128 -11.76405,-13.108179 -3.85,-5.590955 -7.51005,-10.185368 -8.13345,-10.209805 -1.55887,-0.06111 -22.22411,21.516108 -33.00871,34.465421 -24.05097,28.878531 -46.23338,65.592641 -55.73086,92.240141 l -2.58399,7.25 h 2.28642 c 2.55562,0 34.8727,-8.47738 49.93611,-13.09918 24.32052,-7.46209 42.20734,-9.40829 79.13934,-8.61083 20.24027,0.43704 26.97593,0.94791 34.81708,2.64075 23.57926,5.09055 49.98629,18.52105 63.4629,32.27696 11.52344,11.76225 21.29851,31.52341 30.3189,61.2923 2.83318,9.35 5.96124,18.84508 6.95124,21.10018 3.72925,8.49474 26.19414,41.86811 35.64765,52.95741 6.314,7.40653 11.1151,15.88116 14.13053,24.94241 2.47812,7.44663 2.66187,9.21049 2.65654,25.5 -0.007,22.32538 -2.46928,38.43439 -9.33454,61.07732 -6.06048,19.98865 -9.35478,28.1802 -15.15852,37.6929 -18.1166,29.69432 -38.97774,50.65057 -62.74985,63.03597 -25.64734,13.3624 -53.24274,21.01277 -90.40627,25.06367 -11.96915,1.30465 -15.24052,1.97597 -15.24052,3.12748 0,3.59347 28.46448,21.10679 50.53729,31.09402 33.77628,15.28268 63.88577,23.74756 102.83982,28.91203 15.81145,2.09626 47.35715,2.55637 65.12289,0.94986 z m -16.5,-528.62788 c -10.29771,-0.871227 -10.5,-0.982627 -10.5,-5.781787 0,-3.63268 0.50871,-4.79384 3.02943,-6.91489 3.44967,-2.90271 8.41278,-4.111572 13.78391,-3.35735 5.41488,0.76037 14.88727,4.56707 17.97643,7.22426 2.61247,2.24715 2.63848,2.37371 0.88572,4.31048 -1.17472,1.29805 -1.43355,2.22542 -0.74064,2.65366 2.97703,1.839907 0.17454,2.526327 -9.68485,2.372157 -5.9125,-0.0925 -12.55,-0.32039 -14.75,-0.50653 z m -20,-13.211997 c -7.22394,-2.09993 -11.94611,-4.473112 -16.10388,-8.093186 -3.57744,-3.114801 -9.98584,-4.567401 -24.6208,-5.580823 -10.1927,-0.70581 -12.44436,-1.756042 -11.32516,-5.282329 0.93719,-2.952845 9.42183,-6.157031 16.30372,-6.157031 9.06913,0 14.94065,2.309805 27.85313,10.957191 14.53621,9.734779 18.92688,13.369938 17.98648,14.891528 -0.93313,1.50984 -2.85036,1.37016 -10.09349,-0.73535 z m 41.5,494.346787 c 0,-0.29691 -1.00711,-2.43441 -2.23801,-4.75 -4.67141,-8.78793 -2.38167,-26.37919 5.23391,-40.21016 1.87845,-3.41153 2.93501,-7.09256 3.32572,-11.58669 0.73385,-8.44121 3.84186,-16.60164 12.75488,-33.48934 8.09701,-15.3416 11.1011,-18.32179 23.1735,-22.98916 3.7125,-1.43531 6.75,-2.92992 6.75,-3.32135 0,-0.39142 1.58641,-1.28534 3.52536,-1.98647 5.27834,-1.90867 6.52748,-4.61872 6.98802,-15.16066 0.22143,-5.06861 0.57538,-9.38843 0.78656,-9.5996 0.21117,-0.21118 5.16186,-1.34141 11.00153,-2.51162 5.83966,-1.17022 11.9496,-2.93772 13.57763,-3.92778 6.05693,-3.68344 18.35538,-22.98742 22.21939,-34.87615 5.23812,-16.1166 13.81257,-26.72036 25.40151,-31.41328 16.20393,-6.56176 21.33536,-9.53825 24.58403,-14.26004 4.85369,-7.05459 9.31304,-17.6301 13.86354,-32.87786 4.31213,-14.44904 9.97438,-27.24147 17.01475,-38.44055 4.71919,-7.50678 6.02442,-11.57677 6.0321,-18.80945 0.006,-5.9147 -1.07696,-7.44385 -8.69607,-12.27574 -5.53888,-3.51265 -13.75566,-6.19678 -25.79835,-8.42739 -5.97161,-1.1061 -10.5142,-2.61694 -13.5,-4.49002 -2.475,-1.55265 -7.65,-3.83433 -11.5,-5.07042 -3.85,-1.23608 -11.50266,-4.44042 -17.00591,-7.12075 l -10.00591,-4.87333 -3.92084,-11.61237 c -4.42671,-13.11064 -6.95512,-16.53348 -15.34593,-20.77459 -2.90322,-1.46743 -9.65322,-3.82927 -15,-5.24855 -5.34678,-1.41928 -11.07141,-3.25803 -12.72141,-4.08613 -1.65,-0.82809 -6.84889,-5.50277 -11.55308,-10.38817 -7.50752,-7.79671 -8.97444,-8.88326 -12,-8.88843 -7.2866,-0.0125 -23.69668,-3.13632 -34.03871,-6.47967 -11.19871,-3.6203 -22.20613,-5.24394 -28.08027,-4.14194 -1.87132,0.35106 -7.66064,3.39856 -12.86517,6.77223 -9.28307,6.01744 -9.58621,6.13068 -15.96277,5.96301 -14.21559,-0.37381 -26.72169,-4.41243 -34.31856,-11.08257 -5.09416,-4.47273 -5.65521,-5.77511 -7.17479,-16.65491 -0.72459,-5.18789 -2.00345,-10.47952 -2.84191,-11.75917 -1.58286,-2.41574 -5.77822,-3.57931 -12.98049,-3.60008 -4.81999,-0.0139 -7.27912,-1.32689 -9.10758,-4.86274 -1.58457,-3.06422 -1.15523,-6.18359 2.4822,-18.034357 1.48147,-4.82662 1.68371,-6.71915 0.82818,-7.75 -1.86808,-2.250898 -4.17554,-1.58991 -10.84538,3.10674 -7.76433,5.46736 -14.57751,7.84944 -22.74326,7.95169 -5.92336,0.0742 -6.38689,-0.10179 -10.33211,-3.92234 -8.91561,-8.63388 -11.52684,-17.326299 -10.73394,-35.73183 0.5413,-12.565043 2.55088,-19.359841 7.8614,-26.581037 7.39468,-10.055191 25.82032,-15.184511 60.19347,-16.756623 l 15.58223,-0.712679 6.31527,5.283355 6.31527,5.283355 0.53722,-7.447236 c 0.82447,-11.429061 4.04305,-16.99382301 17.74893,-30.686993 11.57183,-11.561101 14.21385,-15.515037 14.21385,-21.271869 v -3.185795 l -12.23962,0.658118 c -37.44736,2.013528 -68.82644,8.688348 -101.56434,21.60432 -31.41426,12.393763 -45.68438,19.936473 -68.44604,36.178312 -5.3625,3.826471 -9.75,7.350952 -9.75,7.832181 0,0.481228 2.41929,4.39834 5.37622,8.704691 6.46085,9.409349 11.77346,19.785698 16.14289,31.529537 3.66977,9.863356 8.3461,16.777633 15.69518,23.206433 7.62283,6.66827 12.74522,9.014647 30.7401,14.080917 17.36513,4.88897 32.24202,10.11619 40.54561,14.24633 6.94861,3.45617 13.84952,8.78425 27.84458,21.49834 16.36528,14.86736 18.48765,16.1889 31.80086,19.80144 6.24501,1.69457 12.35769,3.73456 13.58375,4.53331 7.38606,4.81182 8.07626,22.36423 1.2815,32.58961 -1.58755,2.3891 -4.96327,6.77101 -7.5016,9.73758 -7.40084,8.64946 -8.32018,11.21891 -9.58879,26.79968 -1.30103,15.97899 -1.16662,16.54207 6.98463,29.25894 2.66082,4.15119 8.09318,14.07261 12.07191,22.04761 3.97874,7.975 8.34186,15.97213 9.69583,17.77141 1.35397,1.79927 6.66312,6.41544 11.79811,10.25815 11.57942,8.66532 14.97592,12.49123 19.19396,21.62063 4.82389,10.44069 5.70175,15.82602 5.02878,30.84981 -0.59596,13.30452 -2.43715,25.28776 -10.21753,66.5 -5.4723,28.98649 -6.78083,37.89191 -9.47741,64.5 -1.17053,11.55 -2.54015,23.925 -3.0436,27.5 -2.10598,14.95451 -0.6558,28.78563 3.96854,37.85009 2.60897,5.114 12.1187,14.46681 17.33477,17.04873 4.32052,2.13862 5.74171,2.52508 5.74171,1.56134 z m -221,-24.97731 c 57.07779,-3.15785 105.16003,-21.05247 132.08138,-49.15631 18.61025,-19.42768 28.98459,-37.31211 38.85633,-66.98482 7.21517,-21.68752 10.50523,-41.5873 10.47238,-63.34172 -0.0202,-13.37876 -0.36771,-17.44583 -1.83708,-21.5 -2.47759,-6.83599 -8.7749,-16.27043 -18.02198,-27 -15.23613,-17.67878 -31.18538,-45.30587 -36.94751,-64 -7.91384,-25.67496 -10.20713,-31.98973 -15.66243,-43.1277 -6.62139,-13.51879 -14.09141,-22.62738 -25.90037,-31.58171 -11.80019,-8.9477 -31.40846,-16.98097 -51.27787,-21.00793 -10.18431,-2.06407 -13.94417,-2.27793 -39.26285,-2.23326 -17.525,0.0309 -30.99286,0.52457 -36,1.31953 -18.71,2.97053 -43.23179,9.31472 -76.06308,19.67876 l -14.06308,4.43938 -3.72005,11.63111 c -3.50805,10.96826 -10.63071,43.19261 -10.64653,48.167 -0.006,1.99034 0.25578,2.14441 2.0314,1.19413 1.12127,-0.60009 5.51665,-3.92199 9.76751,-7.38201 9.97884,-8.12235 22.56304,-15.64394 43.69383,-26.11588 22.0573,-10.93109 39.13837,-16.56186 64,-21.09757 12.64133,-2.30626 47.95897,-2.60348 59.5,-0.50073 10.2971,1.87611 22.6115,6.32578 34.48085,12.45927 8.03265,4.15088 11.65396,6.81676 18.55239,13.65761 11.27129,11.17723 18.49653,22.2723 32.41782,49.78075 6.32369,12.49559 15.56672,29.01925 20.54008,36.71925 11.82916,18.3145 17.19728,28.84326 22.31369,43.76501 l 4.19517,12.23499 -0.0463,22 -0.0463,22 -3.27539,9 c -1.80146,4.95 -5.26812,13.14188 -7.70369,18.20417 -2.43557,5.06229 -4.4283,9.4771 -4.4283,9.81068 0,1.31643 -16.07952,20.30717 -21.61909,25.53328 -34.64307,32.68269 -88.85659,41.02905 -158.88091,24.46027 -13.11955,-3.10427 -41.95677,-11.87342 -51.76818,-15.74225 -4.27249,-1.68472 -7.99558,-2.83572 -8.27354,-2.55777 -0.95373,0.95373 0.79054,3.86751 7.91036,13.21417 14.24062,18.69462 37.70191,43.37876 55.13136,58.00493 8.97826,7.53423 9.01207,7.55137 14,7.09438 2.75,-0.25195 9.725,-0.71951 15.5,-1.03901 z m 54.5,-61.50846 c 23.86495,-3.43447 39.77735,-8.96872 52.91124,-18.40226 7.96624,-5.72183 25.12588,-23.38024 30.52284,-31.41002 5.11696,-7.61319 10.20052,-18.51294 14.22775,-30.50598 2.40414,-7.15952 3.08075,-11.19317 3.55258,-21.17915 1.24096,-26.26384 -3.55028,-39.60612 -30.04189,-83.65836 -5.84816,-9.72476 -14.58683,-25.69976 -19.41927,-35.5 -11.40866,-23.13692 -14.39236,-27.51453 -28.21976,-41.40334 -9.89735,-9.94131 -12.81024,-12.23393 -20.53349,-16.16114 -17.67206,-8.9861 -30.89789,-11.72042 -57.1875,-11.823 -24.9222,-0.0973 -46.72831,4.12543 -68.19003,13.20479 -36.31147,15.36153 -73.99737,39.65129 -79.49525,51.23722 -1.35399,2.85331 -1.62722,7.22857 -1.62722,26.05642 0,50.64195 6.88382,85.87678 25.21648,129.07043 10.84949,25.56255 18.13112,37.63039 24.71668,40.96294 11.53932,5.83937 45.87113,16.86937 70.06684,22.51083 38.91555,9.07354 57.98601,10.6724 83.5,7.00062 z m -34.5,-35.67815 c -23.60361,-4.07299 -38.46176,-8.85826 -56.95283,-18.34241 -16.93362,-8.68533 -31.41604,-19.44355 -44.59103,-33.1243 -16.49356,-17.12671 -22.43277,-27.4545 -26.6428,-46.32953 -1.68275,-7.54435 -1.92034,-11.26434 -1.46897,-23 0.90502,-23.53091 4.45444,-34.52623 16.70512,-51.74879 26.26695,-36.92729 75.51809,-58.8984 117.45051,-52.39511 28.48902,4.41835 45.00421,15.14972 68.70533,44.6439 8.22474,10.23504 29.67293,50.30731 35.12604,65.627 8.09695,22.74714 7.61105,48.31118 -1.29145,67.94522 -11.39818,25.13815 -36.69564,42.75633 -66.53992,46.3411 -8.61255,1.03451 -35.2637,1.28649 -40.5,0.38292 z m 28.75369,-8.29457 c 15.72885,-1.22321 26.41094,-3.89454 38.14755,-9.53978 7.67811,-3.69313 10.80917,-5.93692 17.0828,-12.24192 12.41511,-12.47719 19.62732,-26.99081 20.73177,-41.71997 0.60287,-8.04 -1.09042,-25.67876 -3.26752,-34.03721 -4.92509,-18.90868 -28.17471,-60.19815 -44.90538,-79.74836 -8.49799,-9.93012 -19.33593,-18.53606 -29.80502,-23.66688 -13.28167,-6.50925 -18.66697,-7.56033 -38.23789,-7.46306 -15.07193,0.0749 -18.12626,0.38545 -26.93031,2.73814 -12.04465,3.21866 -22.8325,8.16377 -34.0289,15.59874 -21.84317,14.50495 -33.67477,27.53857 -43.14287,47.52592 -5.35545,11.30546 -6.89471,20.73227 -6.12744,37.52595 0.61952,13.55985 2.76591,21.31651 9.54625,34.49845 3.88629,7.55549 6.43543,10.8057 16.149,20.59031 16.93783,17.06172 31.26231,26.98181 51.8641,35.9173 15.09919,6.54887 36.50964,12.27454 52.17017,13.95154 4.125,0.44172 7.725,0.85278 8,0.91346 0.275,0.0607 6.01416,-0.31851 12.75369,-0.84263 z M 422.07841,417.4178 c -24.80883,-3.61836 -48.19929,-17.20156 -64.52761,-37.47215 -11.45483,-14.22047 -16.07387,-27.00788 -16.03132,-44.38133 0.0422,-17.21532 5.16678,-28.82902 18.97419,-43.00044 5.92991,-6.08625 9.27942,-8.56879 16,-11.85865 11.8557,-5.80362 18.35876,-7.28949 32,-7.31163 33.0597,-0.0537 56.90024,17.31421 74.99069,54.63082 8.48696,17.50671 9.23053,20.69897 8.84484,37.97237 l -0.33553,15.02763 -3.96291,7.5 c -5.28407,10.00038 -15.18372,20.0038 -23.77485,24.02408 -11.34576,5.30932 -26.87128,7.10171 -42.1775,4.8693 z m 37.98313,-12.77835 c 7.27325,-3.40356 16.09051,-11.53309 19.18695,-17.6904 5.22356,-10.3871 6.22383,-26.95768 2.37656,-39.3702 -6.99546,-22.56961 -24.68613,-47.51395 -40.29429,-56.81609 -11.01924,-6.56724 -15.59175,-7.61276 -33.33709,-7.6226 -15.33917,-0.008 -16.24179,0.10389 -21.85409,2.72112 -14.15952,6.60313 -23.27308,15.06101 -29.19299,27.09268 -8.36659,17.00432 -8.29648,34.44713 0.20431,50.82773 7.72509,14.88589 27.82456,31.48415 47.2677,39.03394 12.65757,4.91495 18.02391,5.73864 34.36912,5.27538 13.93884,-0.39506 15.16862,-0.59459 21.27382,-3.45156 z m 11.43213,-135.49258 c 0,-0.20766 -0.7875,-0.99516 -1.75,-1.75 -1.58606,-1.24387 -1.62143,-1.2085 -0.37756,0.37755 1.30637,1.66575 2.12756,2.19548 2.12756,1.37245 z"
       id="path1"
       clip-path="url(#clipPath44)" /></g></svg>
